<svg width="784" height="747" viewBox="0 0 784 747" fill="none" xmlns="http://www.w3.org/2000/svg">
<path d="M411.53 371.097C403.761 363.003 398.365 353.105 394.404 342.853C393.317 355.93 401.286 370.701 410.962 379.482C416.029 384.08 423.523 388.318 429.834 386.065C433.704 384.683 435.845 380.951 435.957 376.57C429.776 385.031 418.449 378.305 411.53 371.097Z" fill="#2F353F"/>
<path d="M437.385 130.582C385.681 102.737 336.149 99.73 297.912 122.114C252.294 148.82 226.491 198.224 225.461 256.941C225.206 271.491 225.997 286.409 227.884 301.535C215.865 318.38 201.251 336.354 184.287 352.765C177.534 354.899 171.055 357.758 164.973 361.318C163.027 362.458 161.057 363.727 158.788 365.305L50.6632 432.899C-0.11084 462.623 -15.2718 531.473 16.8702 586.377C49.0102 641.278 116.468 661.762 167.01 632.166L178.125 626.221L282.181 735.354C291.684 746.843 309.725 749.59 323.407 741.581C323.526 741.511 323.645 741.438 323.759 741.36L351.372 722.873C354.389 720.853 356.733 718.1 358.251 714.94C358.806 714.172 359.31 713.363 359.752 712.514C370.065 692.778 370.538 690.413 370.79 689.144C372.42 681.003 368.965 672.857 361.99 668.394L334.904 651.046C323.038 643.445 312.517 634.052 303.632 623.127L267.342 578.505L277.804 572.91C281.064 571.43 283.769 570.049 286.299 568.568C292.374 565.012 298.033 560.738 303.196 555.848C328.101 549.511 353.561 546.967 376.518 546.401C385.362 552.466 394.365 557.955 403.474 562.83C459.378 592.75 506.169 595.831 557.605 565.72C595.842 543.335 617.466 498.671 618.497 439.955C619.487 383.624 601.258 320.533 567.17 262.304C533.081 204.075 486.99 157.295 437.385 130.582ZM333.152 439.053L389.723 397.343L325.499 426.327L357.251 401.046L317.659 415.541C317.308 414.964 316.963 414.38 316.615 413.799L338.711 396.124L310.722 403.627C310.332 402.93 309.943 402.232 309.559 401.534L327.182 387.168L304.301 391.651C303.9 390.87 303.5 390.09 303.106 389.309L318.984 376.571L298.464 379.785C298.066 378.936 297.679 378.088 297.289 377.239L312.317 365.182L293.262 368.167C292.912 367.348 292.56 366.529 292.217 365.711L375.125 333.39C372.476 346.076 375.551 362.324 384.6 377.78C389.464 386.089 395.375 392.996 401.72 398.224L334.232 440.54C333.87 440.043 333.508 439.552 333.152 439.053ZM434.906 394.108C426.17 399.222 408.241 390.917 396.478 370.823C384.714 350.729 386.25 331.03 394.986 325.915C403.722 320.801 421.651 329.106 433.415 349.2C445.177 369.294 443.642 388.994 434.906 394.108ZM287.086 266.006C282.346 273.08 277.527 280.121 272.353 286.9C279.672 269.726 288.588 253.189 297.55 236.784C309.327 215.227 322.105 194.073 335.809 173.629C340.55 166.556 345.371 159.515 350.551 152.74C343.244 169.921 334.321 186.453 325.363 202.861C313.593 224.419 300.784 245.562 287.086 266.006ZM271.665 246.736C275.064 232.52 280.881 218.725 286.992 205.491C293.098 192.269 299.894 178.894 308.561 167.139C305.178 181.361 299.351 195.153 293.234 208.384C287.123 221.603 280.318 234.973 271.665 246.736ZM401.661 510.269L444.577 512.626L384.959 493.891L484.256 492.182L371.215 476.413L458.83 462.797L377.34 459.528L444.611 404.283C444.969 403.989 445.283 403.66 445.567 403.312C459.005 391.639 459.208 366.006 445.297 342.244C442.115 336.809 438.483 331.978 434.578 327.817L505.75 267.234L418 315.054C414.538 313.287 411.046 312.016 407.606 311.298L493.513 234.343C488.969 228.294 484.267 222.377 479.393 216.61L396.142 296.284L468.682 204.483C455.038 189.735 440.099 176.137 423.587 164.023C423.3 163.813 423.007 163.614 422.719 163.406L346.414 253.1L414.293 157.717C407.244 153.25 399.921 149.239 392.516 145.356C444.332 160.956 500.841 208.953 541.032 277.606C603.319 384.004 603.18 500.312 540.722 536.876C502.89 559.022 450.744 546.903 401.661 510.269ZM292.696 726.463C292.578 726.318 292.454 726.176 292.325 726.042L190.723 619.483L193.838 617.817L216.874 635.449L204.081 612.339L208.175 610.15L230.674 627.371L218.179 604.8L222.511 602.483L244.474 619.293L232.277 597.26L235.383 595.599L283.292 654.507C292.243 665.513 302.841 674.974 314.788 682.625L343.606 701.082C345.396 702.231 346.435 704.104 346.456 706.23C346.479 708.355 345.479 710.253 343.715 711.434L316.289 729.795C309.347 733.748 298.279 733.368 292.696 726.463ZM262.488 585.915C273.595 598.011 284.115 610.669 294.617 623.29C301.807 631.93 309.08 640.233 317.661 647.542C325.818 654.489 334.818 660.181 343.713 666.111C352.037 671.661 362.498 676.809 363.674 687.894C360.236 678.803 351.987 675.106 344.148 670.38C335.04 664.889 325.83 659.396 317.535 652.711C300.786 639.212 288.098 621.014 275.388 603.851C271.006 597.933 266.662 591.981 262.488 585.915ZM87.5242 503.605C82.8282 482.114 82.9252 460.447 90.3432 439.515C88.2152 442.842 86.2222 446.286 84.5072 449.96C75.4632 469.332 73.2752 489.841 75.5532 510.906C70.8572 489.415 70.9542 467.748 78.3732 446.815C76.2452 450.143 74.2522 453.587 72.5362 457.261C63.4912 476.633 61.3042 497.143 63.5822 518.207C58.8852 496.716 58.9832 475.049 66.4012 454.116C64.2732 457.443 62.2802 460.888 60.5642 464.562C51.5202 483.934 49.3332 504.443 51.6102 525.508C46.9142 504.016 47.0112 482.349 54.4302 461.417C52.3022 464.745 50.3092 468.189 48.5932 471.863C39.5482 491.234 37.3612 511.745 39.6392 532.809C34.9432 511.318 35.0402 489.65 42.4592 468.718C40.3312 472.046 38.3382 475.49 36.6222 479.164C27.5782 498.537 25.3922 519.045 27.6682 540.11C22.9702 518.61 23.0682 496.933 30.4962 475.993C32.2312 471.101 34.3532 466.474 36.7362 462.035C42.6762 455.298 49.7062 449.411 57.7922 444.676L143.046 391.382C138.238 397.402 123.331 421.83 120.425 428.056C111.38 447.427 109.192 467.938 111.471 489.002C106.774 467.511 106.872 445.842 114.29 424.911C112.162 428.239 110.169 431.683 108.453 435.357C99.4092 454.729 97.2212 475.239 99.4992 496.303C94.8022 474.813 94.9002 453.144 102.318 432.213C100.19 435.54 98.1972 438.984 96.4812 442.658C87.4342 462.03 85.2462 482.541 87.5242 503.605ZM319.748 513.75C324.33 517.024 329.072 519.94 333.949 522.558C324.566 520.256 315.452 516.998 306.607 512.494C290.207 504.142 276.179 492.544 263.669 479.15C275.053 494.87 288.363 508.602 304.562 519.417C308.816 522.257 313.203 524.778 317.697 527.038C308.608 525.148 299.737 522.304 291.065 518.266C274.585 510.593 260.483 499.388 247.968 486.332C259.463 501.781 272.994 515.174 289.481 525.284C293.44 527.712 297.488 529.874 301.616 531.803C293.551 530.445 285.618 528.275 277.812 525.105C260.334 518.006 245.411 506.897 232.267 493.514C244.044 508.944 258.031 522.187 275.105 531.639C278.563 533.553 282.074 535.261 285.63 536.798C277.556 535.764 269.586 533.856 261.748 530.868C244.416 524.261 229.635 513.708 216.566 500.694C228.574 516.053 242.956 529.164 260.51 537.944C263.458 539.418 266.433 540.742 269.433 541.942C261.633 541.214 253.898 539.603 246.252 536.949C228.812 530.896 213.998 520.683 200.865 507.874C213.245 523.352 228.176 536.391 246.429 544.516C248.647 545.503 250.874 546.409 253.111 547.24C245.853 546.784 238.61 545.525 231.39 543.323C213.588 537.895 198.504 527.816 185.163 515.054C197.45 530.09 212.16 542.553 230.179 550.206C232.412 551.155 234.657 552.015 236.912 552.796C229.821 552.563 222.717 551.504 215.626 549.49C197.83 544.435 182.846 534.812 169.462 522.235C181.897 537.144 196.485 548.713 214.469 556.234C217.255 557.399 220.075 558.394 222.916 559.261C193.547 555.96 165.642 537.894 148.933 509.352C127.416 472.598 130.504 427.096 155.566 397.838C186.088 378.082 211.688 351.123 231.725 325.217C238.907 361.221 252.396 397.935 273.112 433.322C291.092 464.036 312.557 490.979 336.115 513.489C331.172 511.501 326.321 509.209 321.571 506.553C305.474 497.551 291.721 485.569 279.37 471.967C290.64 487.993 303.749 502.317 319.748 513.75ZM330.433 473.744C306.796 445.88 287.653 414.529 273.191 381.007C255.907 340.945 245.823 296.228 248.484 252.463C250.955 211.817 265.604 169.446 300.471 145.588C303.127 143.77 305.952 142.216 308.73 140.593C294.447 150.577 282.612 162.715 274.121 178.048C264.185 195.992 258.929 216.3 256.87 236.611C252.554 279.185 261.27 322.413 276.372 362.138C288.846 394.952 306.243 426.012 327.414 453.992C353.214 488.09 385.487 518.794 423.59 538.725C458.856 557.172 500.399 566.511 538.497 551.112C541.324 549.969 544.041 548.563 546.786 547.238C530.801 556.611 513.908 562.026 495.285 562.727C474.402 563.514 453.754 558.983 434.38 551.396C393.828 535.516 358.423 506.74 330.433 473.744ZM606.637 386.409C609.392 402.559 611.147 418.932 610.656 435.339C610.23 449.547 608.263 463.215 605.018 477.032C610.233 450.42 610.304 424.024 606.201 397.217C601.71 367.876 592.622 339.098 580.787 311.914C556.51 256.152 519.889 204.48 472.862 165.67C449.574 146.451 423.595 131.923 394.682 123.227C420.616 129.979 444.198 141.54 465.791 157.436C490.18 175.39 511.211 196.798 530.086 220.417C549.462 244.662 565.801 271.644 578.787 299.815C591.512 327.418 601.516 356.39 606.637 386.409Z" fill="#2F353F"/>
<path d="M473.514 123.771C478.486 118.018 483.071 111.921 487.537 105.771C499.604 89.154 510.306 71.665 520.837 54.054C513.562 54.374 506.29 54.69 499.023 55.117C508.552 37.255 517.662 18.968 524.759 0C518.461 7.6 512.631 15.601 506.99 23.697C497.069 37.937 487.939 52.658 478.803 67.403C485.901 67.226 492.99 67.032 500.078 66.741C499.168 68.419 498.23 70.08 497.333 71.764C488.407 88.528 479.808 105.823 473.514 123.771Z" fill="#2F353F"/>
<path d="M541.755 177.128C548.416 173.079 554.804 168.564 561.09 163.96C577.503 151.94 592.906 138.7 608.189 125.297C601.167 123.369 594.148 121.439 587.101 119.615C601.652 105.538 615.934 90.929 628.508 75.054C620.182 80.355 612.178 86.181 604.325 92.155C590.513 102.663 577.307 113.872 564.087 125.102C570.897 127.112 577.703 129.102 584.539 131.001C583.159 132.318 581.755 133.612 580.385 134.94C566.744 148.155 553.254 161.977 541.755 177.128Z" fill="#2F353F"/>
<path d="M658.212 210.969C676.395 202.067 694.487 192.576 711.346 181.354C701.791 183.828 692.38 186.901 683.067 190.162C666.687 195.897 650.667 202.486 634.627 209.09C640.475 213.096 646.326 217.082 652.232 220.991C644.409 224.761 636.655 228.674 629.003 232.785C618.192 238.594 607.417 244.674 597.336 251.691C604.922 249.893 612.39 247.569 619.79 245.129C639.111 238.758 657.847 230.914 676.519 222.88C670.434 218.878 664.353 214.877 658.212 210.969Z" fill="#2F353F"/>
<path d="M721.742 329.848C716.804 324.496 711.87 319.144 706.855 313.868C726.651 309.624 746.5 304.786 765.57 297.971C755.7 298.063 745.825 298.77 736.001 299.684C718.72 301.291 701.583 303.813 684.423 306.346C689.13 311.646 693.844 316.928 698.631 322.148C690.128 323.916 681.659 325.839 673.241 327.979C661.347 331.004 649.423 334.299 637.944 338.672C645.739 338.761 653.548 338.31 661.318 337.731C681.605 336.217 701.681 333.133 721.742 329.848Z" fill="#2F353F"/>
<path d="M783.893 419.343C774.309 416.983 764.568 415.218 754.823 413.666C737.684 410.935 720.456 409.127 703.205 407.323C706.45 413.625 709.706 419.912 713.048 426.156C704.373 425.759 695.691 425.521 687.005 425.505C674.732 425.484 662.363 425.718 650.158 427.106C657.687 429.126 665.364 430.627 673.035 431.993C693.063 435.561 713.277 437.554 733.525 439.349C730.069 432.939 726.617 426.53 723.069 420.174C743.299 420.976 763.729 421.214 783.893 419.343Z" fill="#2F353F"/>
</svg>
