<svg width="198" height="190" viewBox="0 0 198 190" fill="none" xmlns="http://www.w3.org/2000/svg">
<g filter="url(#filter0_d_2_2871)">
<path d="M194 145.311H4V145.406H194V145.311Z" fill="#EBEBEB"/>
<path d="M174.962 151.428H162.376V151.523H174.962V151.428Z" fill="#EBEBEB"/>
<path d="M129.864 152.459H126.56V152.554H129.864V152.459Z" fill="#EBEBEB"/>
<path d="M161.996 147.899H154.703V147.994H161.996V147.899Z" fill="#EBEBEB"/>
<path d="M40.3478 148.537H23.9344V148.632H40.3478V148.537Z" fill="#EBEBEB"/>
<path d="M46.1378 148.537H43.7313V148.632H46.1378V148.537Z" fill="#EBEBEB"/>
<path d="M89.5559 150.142H53.959V150.237H89.5559V150.142Z" fill="#EBEBEB"/>
<path d="M94.0653 128.364H20.6877C19.4919 128.364 18.5187 127.391 18.5187 126.195V23.0508C18.5187 21.855 19.4919 20.8818 20.6877 20.8818H94.0653C95.2608 20.8818 96.234 21.855 96.234 23.0508V126.195C96.234 127.391 95.2608 128.364 94.0653 128.364ZM20.6877 20.9772C19.5439 20.9772 18.6137 21.9074 18.6137 23.0512V126.195C18.6137 127.339 19.5439 128.269 20.6877 128.269H94.0653C95.2088 128.269 96.139 127.339 96.139 126.195V23.0508C96.139 21.9074 95.2088 20.9768 94.0653 20.9768L20.6877 20.9772Z" fill="#EBEBEB"/>
<path d="M176.258 128.364H102.881C101.685 128.364 100.712 127.391 100.712 126.195V23.0508C100.712 21.855 101.685 20.8818 102.881 20.8818H176.258C177.454 20.8818 178.427 21.855 178.427 23.0508V126.195C178.427 127.391 177.454 128.364 176.258 128.364ZM102.881 20.9772C101.737 20.9772 100.807 21.9074 100.807 23.0512V126.195C100.807 127.339 101.737 128.269 102.881 128.269H176.258C177.402 128.269 178.332 127.339 178.332 126.195V23.0508C178.332 21.9074 177.402 20.9768 176.258 20.9768L102.881 20.9772Z" fill="#EBEBEB"/>
<path d="M165.084 45.8706H100.668V118.039H165.084V45.8706Z" fill="#EBEBEB"/>
<path d="M163.82 47.0345H100.668V116.76H163.82V47.0345Z" fill="#FAFAFA"/>
<path d="M161.486 84.0435V79.1445H160.086V75.8788H158.22V70.9799H157.754V75.8788H155.887V79.1445H154.488V84.0435H151.922V85.4434H150.755V90.809H150.522V83.1106H149.822V88.0096H149.122V76.3451H148.656V81.2444H146.79V79.6112H146.09V72.846H144.69V66.0809H144.223V67.0138H134.659V64.2143H133.026V53.4835H132.326V64.2143H129.993V67.0138H129.06V81.0111H124.161V76.8117H125.794V76.1121H124.161V74.9455H119.495V64.2143H118.329V62.5815H112.73V64.2143H112.03V79.1445H109.464V85.9101H108.064V80.5445H106.898V79.1445H104.332V74.2456H102.932V70.9799H101.299V66.0809H100.668V116.76H163.819V84.0435H161.486Z" fill="#F0F0F0"/>
<path d="M138.892 67.7453H138.231V68.4061H138.892V67.7453Z" fill="#FAFAFA"/>
<path d="M138.892 68.8534H138.231V69.5142H138.892V68.8534Z" fill="#FAFAFA"/>
<path d="M138.892 73.2857H138.231V73.9469H138.892V73.2857Z" fill="#FAFAFA"/>
<path d="M138.892 74.3938H138.231V75.0546H138.892V74.3938Z" fill="#FAFAFA"/>
<path d="M138.892 75.5019H138.231V76.1631H138.892V75.5019Z" fill="#FAFAFA"/>
<path d="M138.892 78.8265H138.231V79.4877H138.892V78.8265Z" fill="#FAFAFA"/>
<path d="M138.892 79.9346H138.231V80.5954H138.892V79.9346Z" fill="#FAFAFA"/>
<path d="M137.842 72.1777H137.181V72.8389H137.842V72.1777Z" fill="#FAFAFA"/>
<path d="M137.842 73.2857H137.181V73.9469H137.842V73.2857Z" fill="#FAFAFA"/>
<path d="M137.842 74.3938H137.181V75.0546H137.842V74.3938Z" fill="#FAFAFA"/>
<path d="M137.842 75.5019H137.181V76.1631H137.842V75.5019Z" fill="#FAFAFA"/>
<path d="M137.842 76.61H137.181V77.2708H137.842V76.61Z" fill="#FAFAFA"/>
<path d="M137.842 78.8265H137.181V79.4877H137.842V78.8265Z" fill="#FAFAFA"/>
<path d="M137.842 79.9346H137.181V80.5954H137.842V79.9346Z" fill="#FAFAFA"/>
<path d="M136.792 67.7453H136.131V68.4061H136.792V67.7453Z" fill="#FAFAFA"/>
<path d="M136.792 68.8534H136.131V69.5142H136.792V68.8534Z" fill="#FAFAFA"/>
<path d="M136.792 69.9615H136.131V70.6223H136.792V69.9615Z" fill="#FAFAFA"/>
<path d="M136.792 71.0696H136.131V71.7304H136.792V71.0696Z" fill="#FAFAFA"/>
<path d="M136.792 72.1777H136.131V72.8389H136.792V72.1777Z" fill="#FAFAFA"/>
<path d="M136.792 73.2857H136.131V73.9469H136.792V73.2857Z" fill="#FAFAFA"/>
<path d="M136.792 74.3938H136.131V75.0546H136.792V74.3938Z" fill="#FAFAFA"/>
<path d="M136.792 75.5019H136.131V76.1631H136.792V75.5019Z" fill="#FAFAFA"/>
<path d="M136.792 76.61H136.131V77.2708H136.792V76.61Z" fill="#FAFAFA"/>
<path d="M136.792 77.7184H136.131V78.3793H136.792V77.7184Z" fill="#FAFAFA"/>
<path d="M136.792 79.9346H136.131V80.5954H136.792V79.9346Z" fill="#FAFAFA"/>
<path d="M135.742 67.7453H135.081V68.4061H135.742V67.7453Z" fill="#FAFAFA"/>
<path d="M135.742 68.8534H135.081V69.5142H135.742V68.8534Z" fill="#FAFAFA"/>
<path d="M135.742 69.9615H135.081V70.6223H135.742V69.9615Z" fill="#FAFAFA"/>
<path d="M135.742 71.0696H135.081V71.7304H135.742V71.0696Z" fill="#FAFAFA"/>
<path d="M135.742 72.1777H135.081V72.8389H135.742V72.1777Z" fill="#FAFAFA"/>
<path d="M135.742 73.2857H135.081V73.9469H135.742V73.2857Z" fill="#FAFAFA"/>
<path d="M135.742 74.3938H135.081V75.0546H135.742V74.3938Z" fill="#FAFAFA"/>
<path d="M135.742 84.3669H135.081V85.0281H135.742V84.3669Z" fill="#FAFAFA"/>
<path d="M134.692 67.7453H134.031V68.4061H134.692V67.7453Z" fill="#FAFAFA"/>
<path d="M134.692 68.8534H134.031V69.5142H134.692V68.8534Z" fill="#FAFAFA"/>
<path d="M134.692 69.9615H134.031V70.6223H134.692V69.9615Z" fill="#FAFAFA"/>
<path d="M134.692 71.0696H134.031V71.7304H134.692V71.0696Z" fill="#FAFAFA"/>
<path d="M134.692 72.1777H134.031V72.8389H134.692V72.1777Z" fill="#FAFAFA"/>
<path d="M134.692 73.2857H134.031V73.9469H134.692V73.2857Z" fill="#FAFAFA"/>
<path d="M134.692 74.3938H134.031V75.0546H134.692V74.3938Z" fill="#FAFAFA"/>
<path d="M134.692 75.5019H134.031V76.1631H134.692V75.5019Z" fill="#FAFAFA"/>
<path d="M134.692 82.1508H134.031V82.812H134.692V82.1508Z" fill="#FAFAFA"/>
<path d="M134.692 83.2589H134.031V83.9197H134.692V83.2589Z" fill="#FAFAFA"/>
<path d="M134.692 84.3669H134.031V85.0281H134.692V84.3669Z" fill="#FAFAFA"/>
<path d="M134.692 85.475H134.031V86.1362H134.692V85.475Z" fill="#FAFAFA"/>
<path d="M134.692 89.9073H134.031V90.5681H134.692V89.9073Z" fill="#FAFAFA"/>
<path d="M133.643 67.7453H132.982V68.4061H133.643V67.7453Z" fill="#FAFAFA"/>
<path d="M133.643 68.8534H132.982V69.5142H133.643V68.8534Z" fill="#FAFAFA"/>
<path d="M133.643 69.9615H132.982V70.6223H133.643V69.9615Z" fill="#FAFAFA"/>
<path d="M133.643 71.0696H132.982V71.7304H133.643V71.0696Z" fill="#FAFAFA"/>
<path d="M133.643 72.1777H132.982V72.8389H133.643V72.1777Z" fill="#FAFAFA"/>
<path d="M133.643 73.2857H132.982V73.9469H133.643V73.2857Z" fill="#FAFAFA"/>
<path d="M133.643 74.3938H132.982V75.0546H133.643V74.3938Z" fill="#FAFAFA"/>
<path d="M133.643 75.5019H132.982V76.1631H133.643V75.5019Z" fill="#FAFAFA"/>
<path d="M133.643 76.61H132.982V77.2708H133.643V76.61Z" fill="#FAFAFA"/>
<path d="M133.643 77.7184H132.982V78.3793H133.643V77.7184Z" fill="#FAFAFA"/>
<path d="M133.643 81.0427H132.982V81.7039H133.643V81.0427Z" fill="#FAFAFA"/>
<path d="M133.643 82.1508H132.982V82.812H133.643V82.1508Z" fill="#FAFAFA"/>
<path d="M133.643 83.2589H132.982V83.9197H133.643V83.2589Z" fill="#FAFAFA"/>
<path d="M133.643 84.3669H132.982V85.0281H133.643V84.3669Z" fill="#FAFAFA"/>
<path d="M133.643 85.475H132.982V86.1362H133.643V85.475Z" fill="#FAFAFA"/>
<path d="M133.643 89.9073H132.982V90.5681H133.643V89.9073Z" fill="#FAFAFA"/>
<path d="M132.593 67.7453H131.932V68.4061H132.593V67.7453Z" fill="#FAFAFA"/>
<path d="M132.593 68.8534H131.932V69.5142H132.593V68.8534Z" fill="#FAFAFA"/>
<path d="M132.593 69.9615H131.932V70.6223H132.593V69.9615Z" fill="#FAFAFA"/>
<path d="M132.593 71.0696H131.932V71.7304H132.593V71.0696Z" fill="#FAFAFA"/>
<path d="M132.593 72.1777H131.932V72.8389H132.593V72.1777Z" fill="#FAFAFA"/>
<path d="M132.593 73.2857H131.932V73.9469H132.593V73.2857Z" fill="#FAFAFA"/>
<path d="M132.593 74.3938H131.932V75.0546H132.593V74.3938Z" fill="#FAFAFA"/>
<path d="M132.593 75.5019H131.932V76.1631H132.593V75.5019Z" fill="#FAFAFA"/>
<path d="M132.593 76.61H131.932V77.2708H132.593V76.61Z" fill="#FAFAFA"/>
<path d="M132.593 77.7184H131.932V78.3793H132.593V77.7184Z" fill="#FAFAFA"/>
<path d="M132.593 78.8265H131.932V79.4877H132.593V78.8265Z" fill="#FAFAFA"/>
<path d="M132.593 79.9346H131.932V80.5954H132.593V79.9346Z" fill="#FAFAFA"/>
<path d="M132.593 81.0427H131.932V81.7039H132.593V81.0427Z" fill="#FAFAFA"/>
<path d="M132.593 82.1508H131.932V82.812H132.593V82.1508Z" fill="#FAFAFA"/>
<path d="M132.593 83.2589H131.932V83.9197H132.593V83.2589Z" fill="#FAFAFA"/>
<path d="M132.593 84.3669H131.932V85.0281H132.593V84.3669Z" fill="#FAFAFA"/>
<path d="M132.593 85.475H131.932V86.1362H132.593V85.475Z" fill="#FAFAFA"/>
<path d="M132.593 86.5831H131.932V87.2439H132.593V86.5831Z" fill="#FAFAFA"/>
<path d="M131.543 67.7453H130.882V68.4061H131.543V67.7453Z" fill="#FAFAFA"/>
<path d="M131.543 68.8534H130.882V69.5142H131.543V68.8534Z" fill="#FAFAFA"/>
<path d="M131.543 69.9615H130.882V70.6223H131.543V69.9615Z" fill="#FAFAFA"/>
<path d="M131.543 71.0696H130.882V71.7304H131.543V71.0696Z" fill="#FAFAFA"/>
<path d="M131.543 72.1777H130.882V72.8389H131.543V72.1777Z" fill="#FAFAFA"/>
<path d="M131.543 73.2857H130.882V73.9469H131.543V73.2857Z" fill="#FAFAFA"/>
<path d="M131.543 74.3938H130.882V75.0546H131.543V74.3938Z" fill="#FAFAFA"/>
<path d="M131.543 75.5019H130.882V76.1631H131.543V75.5019Z" fill="#FAFAFA"/>
<path d="M131.543 76.61H130.882V77.2708H131.543V76.61Z" fill="#FAFAFA"/>
<path d="M131.543 77.7184H130.882V78.3793H131.543V77.7184Z" fill="#FAFAFA"/>
<path d="M131.543 81.0427H130.882V81.7039H131.543V81.0427Z" fill="#FAFAFA"/>
<path d="M131.543 82.1508H130.882V82.812H131.543V82.1508Z" fill="#FAFAFA"/>
<path d="M131.543 83.2589H130.882V83.9197H131.543V83.2589Z" fill="#FAFAFA"/>
<path d="M131.543 84.3669H130.882V85.0281H131.543V84.3669Z" fill="#FAFAFA"/>
<path d="M130.493 67.7453H129.832V68.4061H130.493V67.7453Z" fill="#FAFAFA"/>
<path d="M130.493 68.8534H129.832V69.5142H130.493V68.8534Z" fill="#FAFAFA"/>
<path d="M130.493 69.9615H129.832V70.6223H130.493V69.9615Z" fill="#FAFAFA"/>
<path d="M130.493 71.0696H129.832V71.7304H130.493V71.0696Z" fill="#FAFAFA"/>
<path d="M130.493 72.1777H129.832V72.8389H130.493V72.1777Z" fill="#FAFAFA"/>
<path d="M130.493 73.2857H129.832V73.9469H130.493V73.2857Z" fill="#FAFAFA"/>
<path d="M130.493 74.3938H129.832V75.0546H130.493V74.3938Z" fill="#FAFAFA"/>
<path d="M130.493 75.5019H129.832V76.1631H130.493V75.5019Z" fill="#FAFAFA"/>
<path d="M130.493 76.61H129.832V77.2708H130.493V76.61Z" fill="#FAFAFA"/>
<path d="M130.493 77.7184H129.832V78.3793H130.493V77.7184Z" fill="#FAFAFA"/>
<path d="M130.493 81.0427H129.832V81.7039H130.493V81.0427Z" fill="#FAFAFA"/>
<path d="M130.493 82.1508H129.832V82.812H130.493V82.1508Z" fill="#FAFAFA"/>
<path d="M130.493 83.2589H129.832V83.9197H130.493V83.2589Z" fill="#FAFAFA"/>
<path d="M118.674 64.8683H118.013V65.5292H118.674V64.8683Z" fill="#FAFAFA"/>
<path d="M118.674 65.9764H118.013V66.6373H118.674V65.9764Z" fill="#FAFAFA"/>
<path d="M118.674 67.0845H118.013V67.7454H118.674V67.0845Z" fill="#FAFAFA"/>
<path d="M118.674 68.1926H118.013V68.8534H118.674V68.1926Z" fill="#FAFAFA"/>
<path d="M118.674 69.3007H118.013V69.9619H118.674V69.3007Z" fill="#FAFAFA"/>
<path d="M118.674 70.4088H118.013V71.0696H118.674V70.4088Z" fill="#FAFAFA"/>
<path d="M118.674 71.5168H118.013V72.1777H118.674V71.5168Z" fill="#FAFAFA"/>
<path d="M118.674 72.6249H118.013V73.2857H118.674V72.6249Z" fill="#FAFAFA"/>
<path d="M118.674 75.9492H118.013V76.61H118.674V75.9492Z" fill="#FAFAFA"/>
<path d="M118.674 77.0573H118.013V77.7181H118.674V77.0573Z" fill="#FAFAFA"/>
<path d="M117.624 64.8683H116.963V65.5292H117.624V64.8683Z" fill="#FAFAFA"/>
<path d="M117.624 65.9764H116.963V66.6373H117.624V65.9764Z" fill="#FAFAFA"/>
<path d="M117.624 67.0845H116.963V67.7454H117.624V67.0845Z" fill="#FAFAFA"/>
<path d="M117.624 68.1926H116.963V68.8534H117.624V68.1926Z" fill="#FAFAFA"/>
<path d="M117.624 69.3007H116.963V69.9619H117.624V69.3007Z" fill="#FAFAFA"/>
<path d="M117.624 70.4088H116.963V71.0696H117.624V70.4088Z" fill="#FAFAFA"/>
<path d="M117.624 71.5168H116.963V72.1777H117.624V71.5168Z" fill="#FAFAFA"/>
<path d="M117.624 72.6249H116.963V73.2857H117.624V72.6249Z" fill="#FAFAFA"/>
<path d="M117.624 77.0573H116.963V77.7181H117.624V77.0573Z" fill="#FAFAFA"/>
<path d="M116.574 64.8683H115.913V65.5292H116.574V64.8683Z" fill="#FAFAFA"/>
<path d="M116.574 65.9764H115.913V66.6373H116.574V65.9764Z" fill="#FAFAFA"/>
<path d="M116.574 67.0845H115.913V67.7454H116.574V67.0845Z" fill="#FAFAFA"/>
<path d="M116.574 68.1926H115.913V68.8534H116.574V68.1926Z" fill="#FAFAFA"/>
<path d="M116.574 69.3007H115.913V69.9619H116.574V69.3007Z" fill="#FAFAFA"/>
<path d="M116.574 70.4088H115.913V71.0696H116.574V70.4088Z" fill="#FAFAFA"/>
<path d="M116.574 71.5168H115.913V72.1777H116.574V71.5168Z" fill="#FAFAFA"/>
<path d="M116.574 72.6249H115.913V73.2857H116.574V72.6249Z" fill="#FAFAFA"/>
<path d="M115.525 64.8683H114.863V65.5292H115.525V64.8683Z" fill="#FAFAFA"/>
<path d="M115.525 65.9764H114.863V66.6373H115.525V65.9764Z" fill="#FAFAFA"/>
<path d="M115.525 67.0845H114.863V67.7454H115.525V67.0845Z" fill="#FAFAFA"/>
<path d="M115.525 68.1926H114.863V68.8534H115.525V68.1926Z" fill="#FAFAFA"/>
<path d="M115.525 69.3007H114.863V69.9619H115.525V69.3007Z" fill="#FAFAFA"/>
<path d="M115.525 70.4088H114.863V71.0696H115.525V70.4088Z" fill="#FAFAFA"/>
<path d="M115.525 72.6249H114.863V73.2857H115.525V72.6249Z" fill="#FAFAFA"/>
<path d="M115.525 73.733H114.863V74.3938H115.525V73.733Z" fill="#FAFAFA"/>
<path d="M115.525 77.0573H114.863V77.7181H115.525V77.0573Z" fill="#FAFAFA"/>
<path d="M115.525 78.1653H114.863V78.8261H115.525V78.1653Z" fill="#FAFAFA"/>
<path d="M115.525 79.2734H114.863V79.9342H115.525V79.2734Z" fill="#FAFAFA"/>
<path d="M115.525 80.3815H114.863V81.0423H115.525V80.3815Z" fill="#FAFAFA"/>
<path d="M115.525 81.4896H114.863V82.1504H115.525V81.4896Z" fill="#FAFAFA"/>
<path d="M115.525 82.598H114.863V83.2588H115.525V82.598Z" fill="#FAFAFA"/>
<path d="M115.525 83.7061H114.863V84.3669H115.525V83.7061Z" fill="#FAFAFA"/>
<path d="M114.475 64.8683H113.814V65.5292H114.475V64.8683Z" fill="#FAFAFA"/>
<path d="M114.475 65.9764H113.814V66.6373H114.475V65.9764Z" fill="#FAFAFA"/>
<path d="M114.475 67.0845H113.814V67.7454H114.475V67.0845Z" fill="#FAFAFA"/>
<path d="M114.475 68.1926H113.814V68.8534H114.475V68.1926Z" fill="#FAFAFA"/>
<path d="M114.475 69.3007H113.814V69.9619H114.475V69.3007Z" fill="#FAFAFA"/>
<path d="M114.475 70.4088H113.814V71.0696H114.475V70.4088Z" fill="#FAFAFA"/>
<path d="M114.475 73.733H113.814V74.3938H114.475V73.733Z" fill="#FAFAFA"/>
<path d="M114.475 74.8411H113.814V75.5019H114.475V74.8411Z" fill="#FAFAFA"/>
<path d="M114.475 75.9492H113.814V76.61H114.475V75.9492Z" fill="#FAFAFA"/>
<path d="M114.475 77.0573H113.814V77.7181H114.475V77.0573Z" fill="#FAFAFA"/>
<path d="M114.475 78.1653H113.814V78.8261H114.475V78.1653Z" fill="#FAFAFA"/>
<path d="M114.475 79.2734H113.814V79.9342H114.475V79.2734Z" fill="#FAFAFA"/>
<path d="M114.475 80.3815H113.814V81.0423H114.475V80.3815Z" fill="#FAFAFA"/>
<path d="M114.475 81.4896H113.814V82.1504H114.475V81.4896Z" fill="#FAFAFA"/>
<path d="M114.475 82.598H113.814V83.2588H114.475V82.598Z" fill="#FAFAFA"/>
<path d="M114.475 83.7061H113.814V84.3669H114.475V83.7061Z" fill="#FAFAFA"/>
<path d="M114.475 84.8141H113.814V85.475H114.475V84.8141Z" fill="#FAFAFA"/>
<path d="M114.475 87.0303H113.814V87.6912H114.475V87.0303Z" fill="#FAFAFA"/>
<path d="M113.425 64.8683H112.764V65.5292H113.425V64.8683Z" fill="#FAFAFA"/>
<path d="M113.425 65.9764H112.764V66.6373H113.425V65.9764Z" fill="#FAFAFA"/>
<path d="M113.425 67.0845H112.764V67.7454H113.425V67.0845Z" fill="#FAFAFA"/>
<path d="M113.425 68.1926H112.764V68.8534H113.425V68.1926Z" fill="#FAFAFA"/>
<path d="M113.425 69.3007H112.764V69.9619H113.425V69.3007Z" fill="#FAFAFA"/>
<path d="M113.425 70.4088H112.764V71.0696H113.425V70.4088Z" fill="#FAFAFA"/>
<path d="M113.425 73.733H112.764V74.3938H113.425V73.733Z" fill="#FAFAFA"/>
<path d="M113.425 74.8411H112.764V75.5019H113.425V74.8411Z" fill="#FAFAFA"/>
<path d="M113.425 75.9492H112.764V76.61H113.425V75.9492Z" fill="#FAFAFA"/>
<path d="M113.425 77.0573H112.764V77.7181H113.425V77.0573Z" fill="#FAFAFA"/>
<path d="M113.425 80.3815H112.764V81.0423H113.425V80.3815Z" fill="#FAFAFA"/>
<path d="M113.425 81.4896H112.764V82.1504H113.425V81.4896Z" fill="#FAFAFA"/>
<path d="M113.425 82.598H112.764V83.2588H113.425V82.598Z" fill="#FAFAFA"/>
<path d="M113.425 83.7061H112.764V84.3669H113.425V83.7061Z" fill="#FAFAFA"/>
<path d="M113.425 84.8141H112.764V85.475H113.425V84.8141Z" fill="#FAFAFA"/>
<path d="M113.425 87.0303H112.764V87.6912H113.425V87.0303Z" fill="#FAFAFA"/>
<path d="M113.425 88.1384H112.764V88.7993H113.425V88.1384Z" fill="#FAFAFA"/>
<path d="M103.899 75.1717H103.238V75.8325H103.899V75.1717Z" fill="#FAFAFA"/>
<path d="M103.899 76.2797H103.238V76.9405H103.899V76.2797Z" fill="#FAFAFA"/>
<path d="M103.899 77.3878H103.238V78.0486H103.899V77.3878Z" fill="#FAFAFA"/>
<path d="M103.899 78.4959H103.238V79.1567H103.899V78.4959Z" fill="#FAFAFA"/>
<path d="M103.899 79.604H103.238V80.2648H103.899V79.604Z" fill="#FAFAFA"/>
<path d="M103.899 80.712H103.238V81.3729H103.899V80.712Z" fill="#FAFAFA"/>
<path d="M103.899 81.8201H103.238V82.4809H103.899V81.8201Z" fill="#FAFAFA"/>
<path d="M103.899 85.1444H103.238V85.8052H103.899V85.1444Z" fill="#FAFAFA"/>
<path d="M103.899 86.2524H103.238V86.9133H103.899V86.2524Z" fill="#FAFAFA"/>
<path d="M103.899 87.3605H103.238V88.0214H103.899V87.3605Z" fill="#FAFAFA"/>
<path d="M102.849 75.1717H102.188V75.8325H102.849V75.1717Z" fill="#FAFAFA"/>
<path d="M102.849 76.2797H102.188V76.9405H102.849V76.2797Z" fill="#FAFAFA"/>
<path d="M102.849 77.3878H102.188V78.0486H102.849V77.3878Z" fill="#FAFAFA"/>
<path d="M102.849 78.4959H102.188V79.1567H102.849V78.4959Z" fill="#FAFAFA"/>
<path d="M102.849 79.604H102.188V80.2648H102.849V79.604Z" fill="#FAFAFA"/>
<path d="M102.849 80.712H102.188V81.3729H102.849V80.712Z" fill="#FAFAFA"/>
<path d="M102.849 81.8201H102.188V82.4809H102.849V81.8201Z" fill="#FAFAFA"/>
<path d="M101.799 75.1717H100.85V75.8325H101.799V75.1717Z" fill="#FAFAFA"/>
<path d="M101.799 76.2797H100.85V76.9405H101.799V76.2797Z" fill="#FAFAFA"/>
<path d="M101.799 77.3878H100.85V78.0486H101.799V77.3878Z" fill="#FAFAFA"/>
<path d="M101.799 78.4959H100.85V79.1567H101.799V78.4959Z" fill="#FAFAFA"/>
<path d="M101.799 79.604H100.85V80.2648H101.799V79.604Z" fill="#FAFAFA"/>
<path d="M101.799 80.712H100.85V81.3729H101.799V80.712Z" fill="#FAFAFA"/>
<path d="M101.799 81.8201H100.85V82.4809H101.799V81.8201Z" fill="#FAFAFA"/>
<path d="M159.537 76.61H158.876V77.2708H159.537V76.61Z" fill="#FAFAFA"/>
<path d="M159.537 77.7184H158.876V78.3793H159.537V77.7184Z" fill="#FAFAFA"/>
<path d="M159.537 78.8265H158.876V79.4877H159.537V78.8265Z" fill="#FAFAFA"/>
<path d="M159.537 79.9346H158.876V80.5954H159.537V79.9346Z" fill="#FAFAFA"/>
<path d="M159.537 81.0427H158.876V81.7039H159.537V81.0427Z" fill="#FAFAFA"/>
<path d="M159.537 82.1508H158.876V82.812H159.537V82.1508Z" fill="#FAFAFA"/>
<path d="M159.537 83.2589H158.876V83.9197H159.537V83.2589Z" fill="#FAFAFA"/>
<path d="M159.537 84.3669H158.876V85.0281H159.537V84.3669Z" fill="#FAFAFA"/>
<path d="M159.537 85.475H158.876V86.1362H159.537V85.475Z" fill="#FAFAFA"/>
<path d="M159.537 86.5831H158.876V87.2439H159.537V86.5831Z" fill="#FAFAFA"/>
<path d="M159.537 87.6912H158.876V88.3524H159.537V87.6912Z" fill="#FAFAFA"/>
<path d="M159.537 88.7993H158.876V89.4601H159.537V88.7993Z" fill="#FAFAFA"/>
<path d="M159.537 89.9073H158.876V90.5681H159.537V89.9073Z" fill="#FAFAFA"/>
<path d="M159.537 91.0154H158.876V91.6762H159.537V91.0154Z" fill="#FAFAFA"/>
<path d="M159.537 92.1235H158.876V92.7847H159.537V92.1235Z" fill="#FAFAFA"/>
<path d="M159.537 93.2316H158.876V93.8924H159.537V93.2316Z" fill="#FAFAFA"/>
<path d="M159.537 94.3396H158.876V95.0008H159.537V94.3396Z" fill="#FAFAFA"/>
<path d="M159.537 95.4477H158.876V96.1089H159.537V95.4477Z" fill="#FAFAFA"/>
<path d="M159.537 96.5562H158.876V97.217H159.537V96.5562Z" fill="#FAFAFA"/>
<path d="M159.537 97.6642H158.876V98.3255H159.537V97.6642Z" fill="#FAFAFA"/>
<path d="M158.487 76.61H157.827V77.2708H158.487V76.61Z" fill="#FAFAFA"/>
<path d="M158.487 77.7184H157.827V78.3793H158.487V77.7184Z" fill="#FAFAFA"/>
<path d="M158.487 78.8265H157.827V79.4877H158.487V78.8265Z" fill="#FAFAFA"/>
<path d="M158.487 79.9346H157.827V80.5954H158.487V79.9346Z" fill="#FAFAFA"/>
<path d="M158.487 81.0427H157.827V81.7039H158.487V81.0427Z" fill="#FAFAFA"/>
<path d="M158.487 82.1508H157.827V82.812H158.487V82.1508Z" fill="#FAFAFA"/>
<path d="M158.487 83.2589H157.827V83.9197H158.487V83.2589Z" fill="#FAFAFA"/>
<path d="M158.487 84.3669H157.827V85.0281H158.487V84.3669Z" fill="#FAFAFA"/>
<path d="M158.487 85.475H157.827V86.1362H158.487V85.475Z" fill="#FAFAFA"/>
<path d="M158.487 86.5831H157.827V87.2439H158.487V86.5831Z" fill="#FAFAFA"/>
<path d="M158.487 87.6912H157.827V88.3524H158.487V87.6912Z" fill="#FAFAFA"/>
<path d="M158.487 88.7993H157.827V89.4601H158.487V88.7993Z" fill="#FAFAFA"/>
<path d="M158.487 89.9073H157.827V90.5681H158.487V89.9073Z" fill="#FAFAFA"/>
<path d="M158.487 91.0154H157.827V91.6762H158.487V91.0154Z" fill="#FAFAFA"/>
<path d="M158.487 92.1235H157.827V92.7847H158.487V92.1235Z" fill="#FAFAFA"/>
<path d="M158.487 93.2316H157.827V93.8924H158.487V93.2316Z" fill="#FAFAFA"/>
<path d="M158.487 94.3396H157.827V95.0008H158.487V94.3396Z" fill="#FAFAFA"/>
<path d="M158.487 95.4477H157.827V96.1089H158.487V95.4477Z" fill="#FAFAFA"/>
<path d="M157.438 76.61H156.777V77.2708H157.438V76.61Z" fill="#FAFAFA"/>
<path d="M157.438 77.7184H156.777V78.3793H157.438V77.7184Z" fill="#FAFAFA"/>
<path d="M157.438 78.8265H156.777V79.4877H157.438V78.8265Z" fill="#FAFAFA"/>
<path d="M157.438 79.9346H156.777V80.5954H157.438V79.9346Z" fill="#FAFAFA"/>
<path d="M157.438 81.0427H156.777V81.7039H157.438V81.0427Z" fill="#FAFAFA"/>
<path d="M157.438 82.1508H156.777V82.812H157.438V82.1508Z" fill="#FAFAFA"/>
<path d="M157.438 83.2589H156.777V83.9197H157.438V83.2589Z" fill="#FAFAFA"/>
<path d="M157.438 84.3669H156.777V85.0281H157.438V84.3669Z" fill="#FAFAFA"/>
<path d="M157.438 85.475H156.777V86.1362H157.438V85.475Z" fill="#FAFAFA"/>
<path d="M157.438 86.5831H156.777V87.2439H157.438V86.5831Z" fill="#FAFAFA"/>
<path d="M157.438 87.6912H156.777V88.3524H157.438V87.6912Z" fill="#FAFAFA"/>
<path d="M157.438 88.7993H156.777V89.4601H157.438V88.7993Z" fill="#FAFAFA"/>
<path d="M157.438 89.9073H156.777V90.5681H157.438V89.9073Z" fill="#FAFAFA"/>
<path d="M157.438 91.0154H156.777V91.6762H157.438V91.0154Z" fill="#FAFAFA"/>
<path d="M157.438 92.1235H156.777V92.7847H157.438V92.1235Z" fill="#FAFAFA"/>
<path d="M157.438 93.2316H156.777V93.8924H157.438V93.2316Z" fill="#FAFAFA"/>
<path d="M157.438 94.3396H156.777V95.0008H157.438V94.3396Z" fill="#FAFAFA"/>
<path d="M157.438 95.4477H156.777V96.1089H157.438V95.4477Z" fill="#FAFAFA"/>
<path d="M163.465 84.6975H162.803V85.3583H163.465V84.6975Z" fill="#FAFAFA"/>
<path d="M163.465 85.8056H162.803V86.4664H163.465V85.8056Z" fill="#FAFAFA"/>
<path d="M163.465 86.9137H162.803V87.5745H163.465V86.9137Z" fill="#FAFAFA"/>
<path d="M163.465 88.0217H162.803V88.6825H163.465V88.0217Z" fill="#FAFAFA"/>
<path d="M163.465 89.1298H162.803V89.7906H163.465V89.1298Z" fill="#FAFAFA"/>
<path d="M163.465 90.2379H162.803V90.8987H163.465V90.2379Z" fill="#FAFAFA"/>
<path d="M163.465 91.346H162.803V92.0068H163.465V91.346Z" fill="#FAFAFA"/>
<path d="M163.465 92.4541H162.803V93.1149H163.465V92.4541Z" fill="#FAFAFA"/>
<path d="M163.465 93.5621H162.803V94.223H163.465V93.5621Z" fill="#FAFAFA"/>
<path d="M163.465 94.6702H162.803V95.331H163.465V94.6702Z" fill="#FAFAFA"/>
<path d="M163.465 95.7783H162.803V96.4391H163.465V95.7783Z" fill="#FAFAFA"/>
<path d="M163.465 96.8864H162.803V97.5472H163.465V96.8864Z" fill="#FAFAFA"/>
<path d="M163.465 97.9944H162.803V98.6553H163.465V97.9944Z" fill="#FAFAFA"/>
<path d="M162.415 84.6975H161.754V85.3583H162.415V84.6975Z" fill="#FAFAFA"/>
<path d="M162.415 85.8056H161.754V86.4664H162.415V85.8056Z" fill="#FAFAFA"/>
<path d="M162.415 86.9137H161.754V87.5745H162.415V86.9137Z" fill="#FAFAFA"/>
<path d="M162.415 88.0217H161.754V88.6825H162.415V88.0217Z" fill="#FAFAFA"/>
<path d="M162.415 89.1298H161.754V89.7906H162.415V89.1298Z" fill="#FAFAFA"/>
<path d="M162.415 90.2379H161.754V90.8987H162.415V90.2379Z" fill="#FAFAFA"/>
<path d="M162.415 91.346H161.754V92.0068H162.415V91.346Z" fill="#FAFAFA"/>
<path d="M162.415 92.4541H161.754V93.1149H162.415V92.4541Z" fill="#FAFAFA"/>
<path d="M162.415 93.5621H161.754V94.223H162.415V93.5621Z" fill="#FAFAFA"/>
<path d="M162.415 94.6702H161.754V95.331H162.415V94.6702Z" fill="#FAFAFA"/>
<path d="M162.415 95.7783H161.754V96.4391H162.415V95.7783Z" fill="#FAFAFA"/>
<path d="M162.415 96.8864H161.754V97.5472H162.415V96.8864Z" fill="#FAFAFA"/>
<path d="M162.415 97.9944H161.754V98.6553H162.415V97.9944Z" fill="#FAFAFA"/>
<path d="M161.365 84.6975H160.704V85.3583H161.365V84.6975Z" fill="#FAFAFA"/>
<path d="M161.365 85.8056H160.704V86.4664H161.365V85.8056Z" fill="#FAFAFA"/>
<path d="M161.365 86.9137H160.704V87.5745H161.365V86.9137Z" fill="#FAFAFA"/>
<path d="M161.365 88.0217H160.704V88.6825H161.365V88.0217Z" fill="#FAFAFA"/>
<path d="M161.365 89.1298H160.704V89.7906H161.365V89.1298Z" fill="#FAFAFA"/>
<path d="M161.365 90.2379H160.704V90.8987H161.365V90.2379Z" fill="#FAFAFA"/>
<path d="M161.365 91.346H160.704V92.0068H161.365V91.346Z" fill="#FAFAFA"/>
<path d="M161.365 92.4541H160.704V93.1149H161.365V92.4541Z" fill="#FAFAFA"/>
<path d="M161.365 93.5621H160.704V94.223H161.365V93.5621Z" fill="#FAFAFA"/>
<path d="M161.365 94.6702H160.704V95.331H161.365V94.6702Z" fill="#FAFAFA"/>
<path d="M161.365 95.7783H160.704V96.4391H161.365V95.7783Z" fill="#FAFAFA"/>
<path d="M161.365 96.8864H160.704V97.5472H161.365V96.8864Z" fill="#FAFAFA"/>
<path d="M161.365 97.9944H160.704V98.6553H161.365V97.9944Z" fill="#FAFAFA"/>
<path d="M161.365 99.1029H160.704V99.7637H161.365V99.1029Z" fill="#FAFAFA"/>
<path d="M155.533 85.0277H154.872V85.6885H155.533V85.0277Z" fill="#FAFAFA"/>
<path d="M155.533 86.1358H154.872V86.7966H155.533V86.1358Z" fill="#FAFAFA"/>
<path d="M155.533 87.2439H154.872V87.9047H155.533V87.2439Z" fill="#FAFAFA"/>
<path d="M155.533 88.3524H154.872V89.0132H155.533V88.3524Z" fill="#FAFAFA"/>
<path d="M155.533 89.4604H154.872V90.1213H155.533V89.4604Z" fill="#FAFAFA"/>
<path d="M155.533 90.5685H154.872V91.2293H155.533V90.5685Z" fill="#FAFAFA"/>
<path d="M155.533 91.6766H154.872V92.3374H155.533V91.6766Z" fill="#FAFAFA"/>
<path d="M155.533 92.7847H154.872V93.4455H155.533V92.7847Z" fill="#FAFAFA"/>
<path d="M155.533 93.8928H154.872V94.5536H155.533V93.8928Z" fill="#FAFAFA"/>
<path d="M155.533 95.0009H154.872V95.6617H155.533V95.0009Z" fill="#FAFAFA"/>
<path d="M155.533 98.3251H154.872V98.9859H155.533V98.3251Z" fill="#FAFAFA"/>
<path d="M154.483 85.0277H153.822V85.6885H154.483V85.0277Z" fill="#FAFAFA"/>
<path d="M154.483 86.1358H153.822V86.7966H154.483V86.1358Z" fill="#FAFAFA"/>
<path d="M154.483 87.2439H153.822V87.9047H154.483V87.2439Z" fill="#FAFAFA"/>
<path d="M154.483 88.3524H153.822V89.0132H154.483V88.3524Z" fill="#FAFAFA"/>
<path d="M154.483 89.4604H153.822V90.1213H154.483V89.4604Z" fill="#FAFAFA"/>
<path d="M154.483 90.5685H153.822V91.2293H154.483V90.5685Z" fill="#FAFAFA"/>
<path d="M154.483 91.6766H153.822V92.3374H154.483V91.6766Z" fill="#FAFAFA"/>
<path d="M154.483 92.7847H153.822V93.4455H154.483V92.7847Z" fill="#FAFAFA"/>
<path d="M154.483 93.8928H153.822V94.5536H154.483V93.8928Z" fill="#FAFAFA"/>
<path d="M154.483 97.217H153.822V97.8778H154.483V97.217Z" fill="#FAFAFA"/>
<path d="M154.483 98.3251H153.822V98.9859H154.483V98.3251Z" fill="#FAFAFA"/>
<path d="M153.433 85.0277H152.772V85.6885H153.433V85.0277Z" fill="#FAFAFA"/>
<path d="M153.433 86.1358H152.772V86.7966H153.433V86.1358Z" fill="#FAFAFA"/>
<path d="M153.433 87.2439H152.772V87.9047H153.433V87.2439Z" fill="#FAFAFA"/>
<path d="M153.433 88.3524H152.772V89.0132H153.433V88.3524Z" fill="#FAFAFA"/>
<path d="M153.433 89.4604H152.772V90.1213H153.433V89.4604Z" fill="#FAFAFA"/>
<path d="M153.433 90.5685H152.772V91.2293H153.433V90.5685Z" fill="#FAFAFA"/>
<path d="M153.433 91.6766H152.772V92.3374H153.433V91.6766Z" fill="#FAFAFA"/>
<path d="M153.433 92.7847H152.772V93.4455H153.433V92.7847Z" fill="#FAFAFA"/>
<path d="M153.433 96.1089H152.772V96.7697H153.433V96.1089Z" fill="#FAFAFA"/>
<path d="M153.433 97.217H152.772V97.8778H153.433V97.217Z" fill="#FAFAFA"/>
<path d="M153.433 98.3251H152.772V98.9859H153.433V98.3251Z" fill="#FAFAFA"/>
<path d="M143.674 68.1926H143.013V68.8534H143.674V68.1926Z" fill="#FAFAFA"/>
<path d="M143.674 69.3007H143.013V69.9619H143.674V69.3007Z" fill="#FAFAFA"/>
<path d="M143.674 70.4088H143.013V71.0696H143.674V70.4088Z" fill="#FAFAFA"/>
<path d="M143.674 71.5168H143.013V72.1777H143.674V71.5168Z" fill="#FAFAFA"/>
<path d="M143.674 72.6249H143.013V73.2857H143.674V72.6249Z" fill="#FAFAFA"/>
<path d="M143.674 73.733H143.013V74.3938H143.674V73.733Z" fill="#FAFAFA"/>
<path d="M143.674 74.8411H143.013V75.5019H143.674V74.8411Z" fill="#FAFAFA"/>
<path d="M143.674 75.9492H143.013V76.61H143.674V75.9492Z" fill="#FAFAFA"/>
<path d="M143.674 77.0573H143.013V77.7181H143.674V77.0573Z" fill="#FAFAFA"/>
<path d="M143.674 78.1653H143.013V78.8261H143.674V78.1653Z" fill="#FAFAFA"/>
<path d="M143.674 79.2734H143.013V79.9342H143.674V79.2734Z" fill="#FAFAFA"/>
<path d="M143.674 80.3815H143.013V81.0423H143.674V80.3815Z" fill="#FAFAFA"/>
<path d="M143.674 81.4896H143.013V82.1504H143.674V81.4896Z" fill="#FAFAFA"/>
<path d="M143.674 82.598H143.013V83.2588H143.674V82.598Z" fill="#FAFAFA"/>
<path d="M143.674 83.7061H143.013V84.3669H143.674V83.7061Z" fill="#FAFAFA"/>
<path d="M143.674 84.8141H143.013V85.475H143.674V84.8141Z" fill="#FAFAFA"/>
<path d="M143.674 85.9222H143.013V86.5831H143.674V85.9222Z" fill="#FAFAFA"/>
<path d="M143.674 88.1384H143.013V88.7993H143.674V88.1384Z" fill="#FAFAFA"/>
<path d="M143.674 89.2465H143.013V89.9073H143.674V89.2465Z" fill="#FAFAFA"/>
<path d="M143.674 90.3546H143.013V91.0154H143.674V90.3546Z" fill="#FAFAFA"/>
<path d="M143.674 91.4626H143.013V92.1235H143.674V91.4626Z" fill="#FAFAFA"/>
<path d="M143.674 92.5707H143.013V93.2316H143.674V92.5707Z" fill="#FAFAFA"/>
<path d="M142.624 68.1926H141.963V68.8534H142.624V68.1926Z" fill="#FAFAFA"/>
<path d="M142.624 69.3007H141.963V69.9619H142.624V69.3007Z" fill="#FAFAFA"/>
<path d="M142.624 70.4088H141.963V71.0696H142.624V70.4088Z" fill="#FAFAFA"/>
<path d="M142.624 71.5168H141.963V72.1777H142.624V71.5168Z" fill="#FAFAFA"/>
<path d="M142.624 72.6249H141.963V73.2857H142.624V72.6249Z" fill="#FAFAFA"/>
<path d="M142.624 73.733H141.963V74.3938H142.624V73.733Z" fill="#FAFAFA"/>
<path d="M142.624 74.8411H141.963V75.5019H142.624V74.8411Z" fill="#FAFAFA"/>
<path d="M142.624 75.9492H141.963V76.61H142.624V75.9492Z" fill="#FAFAFA"/>
<path d="M142.624 77.0573H141.963V77.7181H142.624V77.0573Z" fill="#FAFAFA"/>
<path d="M142.624 78.1653H141.963V78.8261H142.624V78.1653Z" fill="#FAFAFA"/>
<path d="M142.624 79.2734H141.963V79.9342H142.624V79.2734Z" fill="#FAFAFA"/>
<path d="M142.624 80.3815H141.963V81.0423H142.624V80.3815Z" fill="#FAFAFA"/>
<path d="M142.624 81.4896H141.963V82.1504H142.624V81.4896Z" fill="#FAFAFA"/>
<path d="M142.624 82.598H141.963V83.2588H142.624V82.598Z" fill="#FAFAFA"/>
<path d="M142.624 83.7061H141.963V84.3669H142.624V83.7061Z" fill="#FAFAFA"/>
<path d="M142.624 84.8141H141.963V85.475H142.624V84.8141Z" fill="#FAFAFA"/>
<path d="M142.624 91.4626H141.963V92.1235H142.624V91.4626Z" fill="#FAFAFA"/>
<path d="M142.624 92.5707H141.963V93.2316H142.624V92.5707Z" fill="#FAFAFA"/>
<path d="M141.574 68.1926H140.913V68.8534H141.574V68.1926Z" fill="#FAFAFA"/>
<path d="M141.574 69.3007H140.913V69.9619H141.574V69.3007Z" fill="#FAFAFA"/>
<path d="M141.574 70.4088H140.913V71.0696H141.574V70.4088Z" fill="#FAFAFA"/>
<path d="M141.574 71.5168H140.913V72.1777H141.574V71.5168Z" fill="#FAFAFA"/>
<path d="M141.574 72.6249H140.913V73.2857H141.574V72.6249Z" fill="#FAFAFA"/>
<path d="M141.574 73.733H140.913V74.3938H141.574V73.733Z" fill="#FAFAFA"/>
<path d="M141.574 74.8411H140.913V75.5019H141.574V74.8411Z" fill="#FAFAFA"/>
<path d="M141.574 75.9492H140.913V76.61H141.574V75.9492Z" fill="#FAFAFA"/>
<path d="M141.574 77.0573H140.913V77.7181H141.574V77.0573Z" fill="#FAFAFA"/>
<path d="M141.574 78.1653H140.913V78.8261H141.574V78.1653Z" fill="#FAFAFA"/>
<path d="M141.574 79.2734H140.913V79.9342H141.574V79.2734Z" fill="#FAFAFA"/>
<path d="M141.574 80.3815H140.913V81.0423H141.574V80.3815Z" fill="#FAFAFA"/>
<path d="M141.574 81.4896H140.913V82.1504H141.574V81.4896Z" fill="#FAFAFA"/>
<path d="M141.574 82.598H140.913V83.2588H141.574V82.598Z" fill="#FAFAFA"/>
<path d="M141.574 83.7061H140.913V84.3669H141.574V83.7061Z" fill="#FAFAFA"/>
<path d="M141.574 84.8141H140.913V85.475H141.574V84.8141Z" fill="#FAFAFA"/>
<path d="M141.574 87.0303H140.913V87.6912H141.574V87.0303Z" fill="#FAFAFA"/>
<path d="M141.574 88.1384H140.913V88.7993H141.574V88.1384Z" fill="#FAFAFA"/>
<path d="M141.574 89.2465H140.913V89.9073H141.574V89.2465Z" fill="#FAFAFA"/>
<path d="M141.574 90.3546H140.913V91.0154H141.574V90.3546Z" fill="#FAFAFA"/>
<path d="M141.574 92.5707H140.913V93.2316H141.574V92.5707Z" fill="#FAFAFA"/>
<path d="M147.485 82.1508H146.823V82.812H147.485V82.1508Z" fill="#FAFAFA"/>
<path d="M147.485 83.2589H146.823V83.9197H147.485V83.2589Z" fill="#FAFAFA"/>
<path d="M147.485 84.3669H146.823V85.0281H147.485V84.3669Z" fill="#FAFAFA"/>
<path d="M147.485 85.475H146.823V86.1362H147.485V85.475Z" fill="#FAFAFA"/>
<path d="M147.485 86.5831H146.823V87.2439H147.485V86.5831Z" fill="#FAFAFA"/>
<path d="M147.485 87.6912H146.823V88.3524H147.485V87.6912Z" fill="#FAFAFA"/>
<path d="M147.485 88.7993H146.823V89.4601H147.485V88.7993Z" fill="#FAFAFA"/>
<path d="M147.485 91.0154H146.823V91.6762H147.485V91.0154Z" fill="#FAFAFA"/>
<path d="M147.485 92.1235H146.823V92.7847H147.485V92.1235Z" fill="#FAFAFA"/>
<path d="M147.485 93.2316H146.823V93.8924H147.485V93.2316Z" fill="#FAFAFA"/>
<path d="M147.485 94.3396H146.823V95.0008H147.485V94.3396Z" fill="#FAFAFA"/>
<path d="M147.485 95.4477H146.823V96.1089H147.485V95.4477Z" fill="#FAFAFA"/>
<path d="M147.485 96.5562H146.823V97.217H147.485V96.5562Z" fill="#FAFAFA"/>
<path d="M147.485 97.6642H146.823V98.3255H147.485V97.6642Z" fill="#FAFAFA"/>
<path d="M147.485 98.7723H146.823V99.4335H147.485V98.7723Z" fill="#FAFAFA"/>
<path d="M146.435 82.1508H145.773V82.812H146.435V82.1508Z" fill="#FAFAFA"/>
<path d="M146.435 83.2589H145.773V83.9197H146.435V83.2589Z" fill="#FAFAFA"/>
<path d="M146.435 84.3669H145.773V85.0281H146.435V84.3669Z" fill="#FAFAFA"/>
<path d="M146.435 85.475H145.773V86.1362H146.435V85.475Z" fill="#FAFAFA"/>
<path d="M146.435 86.5831H145.773V87.2439H146.435V86.5831Z" fill="#FAFAFA"/>
<path d="M146.435 87.6912H145.773V88.3524H146.435V87.6912Z" fill="#FAFAFA"/>
<path d="M146.435 91.0154H145.773V91.6762H146.435V91.0154Z" fill="#FAFAFA"/>
<path d="M146.435 92.1235H145.773V92.7847H146.435V92.1235Z" fill="#FAFAFA"/>
<path d="M146.435 93.2316H145.773V93.8924H146.435V93.2316Z" fill="#FAFAFA"/>
<path d="M146.435 94.3396H145.773V95.0008H146.435V94.3396Z" fill="#FAFAFA"/>
<path d="M146.435 95.4477H145.773V96.1089H146.435V95.4477Z" fill="#FAFAFA"/>
<path d="M146.435 96.5562H145.773V97.217H146.435V96.5562Z" fill="#FAFAFA"/>
<path d="M146.435 97.6642H145.773V98.3255H146.435V97.6642Z" fill="#FAFAFA"/>
<path d="M146.435 98.7723H145.773V99.4335H146.435V98.7723Z" fill="#FAFAFA"/>
<path d="M145.385 82.1508H144.724V82.812H145.385V82.1508Z" fill="#FAFAFA"/>
<path d="M145.385 83.2589H144.724V83.9197H145.385V83.2589Z" fill="#FAFAFA"/>
<path d="M145.385 84.3669H144.724V85.0281H145.385V84.3669Z" fill="#FAFAFA"/>
<path d="M145.385 85.475H144.724V86.1362H145.385V85.475Z" fill="#FAFAFA"/>
<path d="M145.385 86.5831H144.724V87.2439H145.385V86.5831Z" fill="#FAFAFA"/>
<path d="M145.385 87.6912H144.724V88.3524H145.385V87.6912Z" fill="#FAFAFA"/>
<path d="M145.385 89.9073H144.724V90.5681H145.385V89.9073Z" fill="#FAFAFA"/>
<path d="M145.385 91.0154H144.724V91.6762H145.385V91.0154Z" fill="#FAFAFA"/>
<path d="M145.385 92.1235H144.724V92.7847H145.385V92.1235Z" fill="#FAFAFA"/>
<path d="M145.385 93.2316H144.724V93.8924H145.385V93.2316Z" fill="#FAFAFA"/>
<path d="M145.385 94.3396H144.724V95.0008H145.385V94.3396Z" fill="#FAFAFA"/>
<path d="M145.385 95.4477H144.724V96.1089H145.385V95.4477Z" fill="#FAFAFA"/>
<path d="M145.385 96.5562H144.724V97.217H145.385V96.5562Z" fill="#FAFAFA"/>
<path d="M145.385 97.6642H144.724V98.3255H145.385V97.6642Z" fill="#FAFAFA"/>
<path d="M145.385 98.7723H144.724V99.4335H145.385V98.7723Z" fill="#FAFAFA"/>
<path d="M123.261 75.9492H122.601V76.61H123.261V75.9492Z" fill="#FAFAFA"/>
<path d="M123.261 77.0573H122.601V77.7181H123.261V77.0573Z" fill="#FAFAFA"/>
<path d="M123.261 78.1653H122.601V78.8261H123.261V78.1653Z" fill="#FAFAFA"/>
<path d="M123.261 79.2734H122.601V79.9342H123.261V79.2734Z" fill="#FAFAFA"/>
<path d="M123.261 80.3815H122.601V81.0423H123.261V80.3815Z" fill="#FAFAFA"/>
<path d="M123.261 81.4896H122.601V82.1504H123.261V81.4896Z" fill="#FAFAFA"/>
<path d="M123.261 82.598H122.601V83.2588H123.261V82.598Z" fill="#FAFAFA"/>
<path d="M123.261 83.7061H122.601V84.3669H123.261V83.7061Z" fill="#FAFAFA"/>
<path d="M123.261 84.8141H122.601V85.475H123.261V84.8141Z" fill="#FAFAFA"/>
<path d="M123.261 85.9222H122.601V86.5831H123.261V85.9222Z" fill="#FAFAFA"/>
<path d="M123.261 87.0303H122.601V87.6912H123.261V87.0303Z" fill="#FAFAFA"/>
<path d="M123.261 88.1384H122.601V88.7993H123.261V88.1384Z" fill="#FAFAFA"/>
<path d="M123.261 89.2465H122.601V89.9073H123.261V89.2465Z" fill="#FAFAFA"/>
<path d="M123.261 91.4626H122.601V92.1235H123.261V91.4626Z" fill="#FAFAFA"/>
<path d="M123.261 92.5707H122.601V93.2316H123.261V92.5707Z" fill="#FAFAFA"/>
<path d="M123.261 93.6788H122.601V94.3397H123.261V93.6788Z" fill="#FAFAFA"/>
<path d="M123.261 94.7869H122.601V95.4477H123.261V94.7869Z" fill="#FAFAFA"/>
<path d="M123.261 97.0031H122.601V97.6639H123.261V97.0031Z" fill="#FAFAFA"/>
<path d="M123.261 98.1111H122.601V98.772H123.261V98.1111Z" fill="#FAFAFA"/>
<path d="M123.261 99.2192H122.601V99.8801H123.261V99.2192Z" fill="#FAFAFA"/>
<path d="M122.212 75.9492H121.551V76.61H122.212V75.9492Z" fill="#FAFAFA"/>
<path d="M122.212 77.0573H121.551V77.7181H122.212V77.0573Z" fill="#FAFAFA"/>
<path d="M122.212 78.1653H121.551V78.8261H122.212V78.1653Z" fill="#FAFAFA"/>
<path d="M122.212 79.2734H121.551V79.9342H122.212V79.2734Z" fill="#FAFAFA"/>
<path d="M122.212 80.3815H121.551V81.0423H122.212V80.3815Z" fill="#FAFAFA"/>
<path d="M122.212 81.4896H121.551V82.1504H122.212V81.4896Z" fill="#FAFAFA"/>
<path d="M122.212 82.598H121.551V83.2588H122.212V82.598Z" fill="#FAFAFA"/>
<path d="M122.212 83.7061H121.551V84.3669H122.212V83.7061Z" fill="#FAFAFA"/>
<path d="M122.212 84.8141H121.551V85.475H122.212V84.8141Z" fill="#FAFAFA"/>
<path d="M122.212 85.9222H121.551V86.5831H122.212V85.9222Z" fill="#FAFAFA"/>
<path d="M122.212 87.0303H121.551V87.6912H122.212V87.0303Z" fill="#FAFAFA"/>
<path d="M122.212 88.1384H121.551V88.7993H122.212V88.1384Z" fill="#FAFAFA"/>
<path d="M122.212 89.2465H121.551V89.9073H122.212V89.2465Z" fill="#FAFAFA"/>
<path d="M122.212 92.5707H121.551V93.2316H122.212V92.5707Z" fill="#FAFAFA"/>
<path d="M122.212 93.6788H121.551V94.3397H122.212V93.6788Z" fill="#FAFAFA"/>
<path d="M122.212 95.895H121.551V96.5558H122.212V95.895Z" fill="#FAFAFA"/>
<path d="M122.212 97.0031H121.551V97.6639H122.212V97.0031Z" fill="#FAFAFA"/>
<path d="M122.212 98.1111H121.551V98.772H122.212V98.1111Z" fill="#FAFAFA"/>
<path d="M122.212 99.2192H121.551V99.8801H122.212V99.2192Z" fill="#FAFAFA"/>
<path d="M121.162 75.9492H120.501V76.61H121.162V75.9492Z" fill="#FAFAFA"/>
<path d="M121.162 77.0573H120.501V77.7181H121.162V77.0573Z" fill="#FAFAFA"/>
<path d="M121.162 78.1653H120.501V78.8261H121.162V78.1653Z" fill="#FAFAFA"/>
<path d="M121.162 79.2734H120.501V79.9342H121.162V79.2734Z" fill="#FAFAFA"/>
<path d="M121.162 80.3815H120.501V81.0423H121.162V80.3815Z" fill="#FAFAFA"/>
<path d="M121.162 81.4896H120.501V82.1504H121.162V81.4896Z" fill="#FAFAFA"/>
<path d="M121.162 82.598H120.501V83.2588H121.162V82.598Z" fill="#FAFAFA"/>
<path d="M121.162 83.7061H120.501V84.3669H121.162V83.7061Z" fill="#FAFAFA"/>
<path d="M121.162 84.8141H120.501V85.475H121.162V84.8141Z" fill="#FAFAFA"/>
<path d="M121.162 85.9222H120.501V86.5831H121.162V85.9222Z" fill="#FAFAFA"/>
<path d="M121.162 87.0303H120.501V87.6912H121.162V87.0303Z" fill="#FAFAFA"/>
<path d="M121.162 88.1384H120.501V88.7993H121.162V88.1384Z" fill="#FAFAFA"/>
<path d="M121.162 89.2465H120.501V89.9073H121.162V89.2465Z" fill="#FAFAFA"/>
<path d="M121.162 90.3546H120.501V91.0154H121.162V90.3546Z" fill="#FAFAFA"/>
<path d="M121.162 92.5707H120.501V93.2316H121.162V92.5707Z" fill="#FAFAFA"/>
<path d="M121.162 94.7869H120.501V95.4477H121.162V94.7869Z" fill="#FAFAFA"/>
<path d="M121.162 95.895H120.501V96.5558H121.162V95.895Z" fill="#FAFAFA"/>
<path d="M121.162 97.0031H120.501V97.6639H121.162V97.0031Z" fill="#FAFAFA"/>
<path d="M121.162 98.1111H120.501V98.772H121.162V98.1111Z" fill="#FAFAFA"/>
<path d="M121.162 99.2192H120.501V99.8801H121.162V99.2192Z" fill="#FAFAFA"/>
<path d="M127.539 82.2674H126.878V82.9282H127.539V82.2674Z" fill="#FAFAFA"/>
<path d="M127.539 83.3755H126.878V84.0363H127.539V83.3755Z" fill="#FAFAFA"/>
<path d="M127.539 84.4836H126.878V85.1444H127.539V84.4836Z" fill="#FAFAFA"/>
<path d="M127.539 85.5917H126.878V86.2525H127.539V85.5917Z" fill="#FAFAFA"/>
<path d="M127.539 86.6997H126.878V87.3605H127.539V86.6997Z" fill="#FAFAFA"/>
<path d="M127.539 87.8078H126.878V88.4686H127.539V87.8078Z" fill="#FAFAFA"/>
<path d="M127.539 91.1321H126.878V91.7929H127.539V91.1321Z" fill="#FAFAFA"/>
<path d="M127.539 92.2401H126.878V92.9009H127.539V92.2401Z" fill="#FAFAFA"/>
<path d="M127.539 93.3482H126.878V94.009H127.539V93.3482Z" fill="#FAFAFA"/>
<path d="M127.539 94.4567H126.878V95.1175H127.539V94.4567Z" fill="#FAFAFA"/>
<path d="M127.539 95.5648H126.878V96.2256H127.539V95.5648Z" fill="#FAFAFA"/>
<path d="M127.539 96.6729H126.878V97.3337H127.539V96.6729Z" fill="#FAFAFA"/>
<path d="M127.539 97.7809H126.878V98.4417H127.539V97.7809Z" fill="#FAFAFA"/>
<path d="M126.488 82.2674H125.828V82.9282H126.488V82.2674Z" fill="#FAFAFA"/>
<path d="M126.488 83.3755H125.828V84.0363H126.488V83.3755Z" fill="#FAFAFA"/>
<path d="M126.488 84.4836H125.828V85.1444H126.488V84.4836Z" fill="#FAFAFA"/>
<path d="M126.488 85.5917H125.828V86.2525H126.488V85.5917Z" fill="#FAFAFA"/>
<path d="M126.488 86.6997H125.828V87.3605H126.488V86.6997Z" fill="#FAFAFA"/>
<path d="M126.488 87.8078H125.828V88.4686H126.488V87.8078Z" fill="#FAFAFA"/>
<path d="M126.488 91.1321H125.828V91.7929H126.488V91.1321Z" fill="#FAFAFA"/>
<path d="M126.488 92.2401H125.828V92.9009H126.488V92.2401Z" fill="#FAFAFA"/>
<path d="M126.488 93.3482H125.828V94.009H126.488V93.3482Z" fill="#FAFAFA"/>
<path d="M126.488 94.4567H125.828V95.1175H126.488V94.4567Z" fill="#FAFAFA"/>
<path d="M126.488 95.5648H125.828V96.2256H126.488V95.5648Z" fill="#FAFAFA"/>
<path d="M126.488 96.6729H125.828V97.3337H126.488V96.6729Z" fill="#FAFAFA"/>
<path d="M126.488 98.889H125.828V99.5498H126.488V98.889Z" fill="#FAFAFA"/>
<path d="M101.98 46.034H100.668V118.039H101.98V46.034Z" fill="#EBEBEB"/>
<path d="M122.85 46.034H121.739V118.039H122.85V46.034Z" fill="#EBEBEB"/>
<path d="M143.719 46.034H142.609V118.039H143.719V46.034Z" fill="#EBEBEB"/>
<path d="M33.9501 136.312C33.9501 136.312 32.2545 132.613 34.1917 128.967C36.129 125.32 36.6902 124.461 35.4556 123.714C34.2206 122.967 33.6544 126.631 33.6544 126.631C33.6544 126.631 32.6136 124.11 33.4728 121.472C34.3323 118.834 34.8712 114.537 33.6974 114.076C32.5235 113.615 33.4732 119.437 32.4548 121.421C32.4548 121.421 31.5994 119.212 31.4584 117.093C31.3178 114.974 31.5374 111.59 30.6106 110.722C29.6838 109.854 29.0899 110.455 30.0007 115.131C30.9116 119.807 30.9047 123.608 30.9047 123.608C30.9047 123.608 28.893 117.474 27.5425 117.295C26.1924 117.116 26.1939 119.103 27.3498 120.826C28.5058 122.549 30.7345 125.636 31.1001 127.224C31.1001 127.224 28.8915 122.608 26.9052 124.023C24.9186 125.437 28.6342 128.226 30.2903 129.233C31.9463 130.24 33.0962 136.556 33.0962 136.556L33.9501 136.312Z" fill="#E0E0E0"/>
<path d="M32.6117 137.829C32.6117 137.829 34.2624 134.105 32.2819 130.488C30.3013 126.87 29.7294 126.02 30.9553 125.254C32.1812 124.489 32.7914 128.144 32.7914 128.144C32.7914 128.144 33.8022 125.608 32.9108 122.983C32.0197 120.358 31.4291 116.07 32.5973 115.591C33.7654 115.113 32.8857 120.948 33.9276 122.917C33.9276 122.917 34.7564 120.695 34.8719 118.574C34.9875 116.454 34.7268 113.074 35.6433 112.192C36.5595 111.31 37.1607 111.902 36.3061 116.591C35.4514 121.281 35.5035 125.082 35.5035 125.082C35.5035 125.082 37.4415 118.918 38.7897 118.719C40.1376 118.52 40.1596 120.506 39.025 122.246C37.8899 123.986 35.6981 127.106 35.3519 128.7C35.3519 128.7 37.5046 124.051 39.5079 125.436C41.5113 126.821 37.8295 129.665 36.1856 130.697C34.5417 131.729 33.4678 138.061 33.4678 138.061L32.6117 137.829Z" fill="#EBEBEB"/>
<path d="M40.2262 135.175H26.588L27.6919 144.934H39.1223L40.2262 135.175Z" fill="#EBEBEB"/>
<path d="M164.306 134.48C164.355 134.149 165.486 126.346 163.221 123.652C162.72 123.056 162.087 122.745 161.34 122.726C156.767 122.619 156.142 126.292 156.136 126.329L156.675 126.412C156.696 126.281 157.238 123.172 161.327 123.271C161.918 123.286 162.401 123.525 162.803 124.003C164.912 126.511 163.779 134.32 163.767 134.399L164.306 134.48Z" fill="#EBEBEB"/>
<path d="M164.583 134.124L165.128 134.107C165.126 134.035 164.947 126.918 168.454 125.447C171.891 124.007 173.437 126.968 173.501 127.095L173.989 126.85C173.971 126.814 172.157 123.303 168.243 124.944C164.391 126.559 164.573 133.816 164.583 134.124Z" fill="#EBEBEB"/>
<path d="M164.567 134.683C164.567 134.57 164.6 123.313 166.795 120.021C168.902 116.86 172.301 118.348 172.445 118.413L172.671 117.916C172.631 117.898 168.708 116.167 166.341 119.718C164.054 123.147 164.021 134.214 164.021 134.683H164.567Z" fill="#EBEBEB"/>
<path d="M160.686 122.997C160.686 122.997 162.682 123.733 162.089 125.471C161.495 127.208 155.181 130.069 155.181 130.069C155.181 130.069 152.537 127.645 154.966 123.703C157.394 119.761 160.632 121.753 160.686 122.997Z" fill="#E0E0E0"/>
<path d="M166.893 119.428C166.893 119.428 165.476 119.276 165.59 118.412C165.704 117.549 171.1 115.327 174.284 118.92C174.284 118.92 172.246 122.422 169.299 122.468C166.352 122.514 166.893 119.428 166.893 119.428Z" fill="#E0E0E0"/>
<path d="M168.348 125.196C168.348 125.196 167.37 124.406 168.426 124.021C169.482 123.635 174.662 123.745 174.716 128.876C174.716 128.876 168.682 129.879 167.936 127.924C167.189 125.969 168.348 125.196 168.348 125.196Z" fill="#E0E0E0"/>
<path d="M159.613 144.934H168.976L169.986 134.683H158.603L159.613 144.934Z" fill="#EBEBEB"/>
<path d="M158.102 135.814H170.486V133.552H158.102V135.814Z" fill="#E0E0E0"/>
<path d="M64.5203 50.7012C67.4937 50.7012 69.9042 48.2907 69.9042 45.3173C69.9042 42.3439 67.4937 39.9335 64.5203 39.9335C61.5469 39.9335 59.1365 42.3439 59.1365 45.3173C59.1365 48.2907 61.5469 50.7012 64.5203 50.7012Z" fill="#E0E0E0"/>
<path d="M64.5203 49.8948C67.0484 49.8948 69.0978 47.8454 69.0978 45.3173C69.0978 42.7892 67.0484 40.7398 64.5203 40.7398C61.9922 40.7398 59.9428 42.7892 59.9428 45.3173C59.9428 47.8454 61.9922 49.8948 64.5203 49.8948Z" fill="#F0F0F0"/>
<path d="M64.7365 42.177V45.377L66.8569 44.1773" fill="#F0F0F0"/>
<path d="M64.7365 42.177V45.377L66.8569 44.1773" stroke="#E0E0E0" stroke-width="2" stroke-miterlimit="10" stroke-linecap="round" stroke-linejoin="round"/>
<path d="M99 162.473C139.691 162.473 172.678 160.547 172.678 158.17C172.678 155.794 139.691 153.868 99 153.868C58.3089 153.868 25.3222 155.794 25.3222 158.17C25.3222 160.547 58.3089 162.473 99 162.473Z" fill="#F5F5F5"/>
<path d="M92.3614 64.0577H34.2734V103.037H92.3614V64.0577Z" fill="#263238"/>
<path d="M47.3944 85.5505H45.624V153.457L41.7537 154.282V154.965H46.1936H46.8248H51.2651V154.282L47.3944 153.457V85.5505Z" fill="#263238"/>
<path d="M81.0108 153.457V85.5505H79.2403V153.457L75.3697 154.282V154.965H79.8096H80.4411H84.8811V154.282L81.0108 153.457Z" fill="#263238"/>
<g opacity="0.6">
<path d="M92.3614 64.0577H34.2734V103.037H92.3614V64.0577Z" fill="white"/>
<path d="M47.3944 85.5505H45.624V153.457L41.7537 154.282V154.965H46.1936H46.8248H51.2651V154.282L47.3944 153.457V85.5505Z" fill="white"/>
<path d="M81.0108 153.457V85.5505H79.2403V153.457L75.3697 154.282V154.965H79.8096H80.4411H84.8811V154.282L81.0108 153.457Z" fill="white"/>
</g>
<path d="M90.6806 101.356V65.7385L35.9545 65.7385L35.9545 101.356H90.6806Z" fill="white"/>
<g opacity="0.2">
<path d="M86.5246 98.8304H39.2838V72.3441H39.6638V98.4504H86.5246V98.8304Z" fill="black"/>
</g>
<path opacity="0.2" d="M43.7955 94.4346H41.7537V98.2604H43.7955V94.4346Z" fill="black"/>
<path d="M43.7955 94.4346H41.7537V95.5484H43.7955V94.4346Z" fill="#407BFF"/>
<path opacity="0.2" d="M47.964 88.3139H45.9223V98.2604H47.964V88.3139Z" fill="black"/>
<path d="M47.964 88.3139H45.9223V91.2099H47.964V88.3139Z" fill="#407BFF"/>
<path opacity="0.2" d="M52.133 90.6088H50.0913V98.2604H52.133V90.6088Z" fill="black"/>
<path d="M52.133 90.6088H50.0913V92.8367H52.133V90.6088Z" fill="#407BFF"/>
<path opacity="0.2" d="M56.302 87.0907H54.2603V98.26H56.302V87.0907Z" fill="black"/>
<path d="M56.302 87.0907H54.2603V90.3427H56.302V87.0907Z" fill="#407BFF"/>
<path opacity="0.2" d="M60.4706 83.844H58.4289V98.2601H60.4706V83.844Z" fill="black"/>
<path d="M60.4706 83.844H58.4289V88.0415H60.4706V83.844Z" fill="#407BFF"/>
<path opacity="0.2" d="M64.6396 81.3877H62.5978V98.2601H64.6396V81.3877Z" fill="black"/>
<path d="M64.6396 81.3877H62.5978V86.3003H64.6396V81.3877Z" fill="#407BFF"/>
<path opacity="0.2" d="M68.8086 84.2281H66.7668V98.26H68.8086V84.2281Z" fill="black"/>
<path d="M68.8086 84.2281H66.7668V88.3139H68.8086V84.2281Z" fill="#407BFF"/>
<path opacity="0.2" d="M72.9776 83.6156H70.9359V98.26H72.9776V83.6156Z" fill="black"/>
<path d="M72.9776 83.6156H70.9359V87.8796H72.9776V83.6156Z" fill="#407BFF"/>
<path opacity="0.2" d="M77.1462 79.8787H75.1044V98.2604H77.1462V79.8787Z" fill="black"/>
<path d="M77.1462 79.8787H75.1044V85.231H77.1462V79.8787Z" fill="#407BFF"/>
<path opacity="0.2" d="M81.3151 76.1129H79.2734V98.2605H81.3151V76.1129Z" fill="black"/>
<path d="M81.3151 76.1129H79.2734V82.5615H81.3151V76.1129Z" fill="#407BFF"/>
<path opacity="0.2" d="M85.4841 72.8202H83.4424V98.2604H85.4841V72.8202Z" fill="black"/>
<path d="M85.4841 72.8202H83.4424V80.2275H85.4841V72.8202Z" fill="#407BFF"/>
<path opacity="0.2" d="M75.3697 68.3449H50.0913V69.3956H75.3697V68.3449Z" fill="black"/>
<path d="M90.0023 94.2769L88.2361 93.4101C88.2361 93.4101 87.7098 92.248 87.6722 92.2667C87.6346 92.2853 84.2898 91.5773 84.2898 91.5773C84.2898 91.5773 84.2522 93.5518 84.628 93.971C85.0038 94.3901 87.2964 94.5858 87.4088 94.6569C87.5217 94.7283 87.7847 94.4927 87.7847 94.4927L89.6638 95.7266L90.0023 94.2769Z" fill="#EBB376"/>
<path d="M109.307 79.4113C109.307 79.4113 108.574 77.7203 106.207 77.7203C103.839 77.7203 101.866 79.1297 101.979 80.9336C102.092 82.7374 100.738 82.5683 100.513 84.3159C100.288 86.0636 101.133 86.5146 101.19 87.2473C101.246 87.9799 100.287 87.7546 99.6676 88.9949C99.0475 90.2352 98.2582 91.9828 100.908 94.294C103.557 96.6051 111.055 96.2107 112.69 94.8013C114.325 93.3919 114.268 90.6863 112.69 89.9532C111.111 89.2202 112.577 89.3331 112.746 87.6983C112.915 86.0636 111.45 85.4434 111.562 84.1468C111.675 82.8503 112.069 79.5241 109.307 79.4113Z" fill="#263238"/>
<path d="M100.106 90.3799V95.0281C100.106 95.0281 99.7068 95.5267 99.1113 96.1651C98.547 96.7693 97.8003 97.4989 97.051 98.043C96.3385 98.5591 95.6203 98.9125 95.0389 98.8384C93.1978 98.6016 88.2361 95.749 88.2361 95.749L89.0626 93.5575C89.0626 93.5575 94.6999 96.4558 95.0389 96.1567C95.3778 95.8576 99.0828 90.6452 100.106 90.3799Z" fill="#407BFF"/>
<path opacity="0.2" d="M99.1113 96.1654C98.547 96.7696 97.8003 97.4992 97.051 98.0434C96.7831 95.9686 99.1626 93.4093 99.1626 93.4093C99.1626 93.4093 99.1968 94.7404 99.1113 96.1654Z" fill="black"/>
<path d="M100.758 107.214C100.758 107.214 97.6692 123.677 96.845 130.436C95.7685 139.253 91.3654 152.153 91.3654 152.153L93.126 152.608C93.126 152.608 99.3333 141.647 100.544 131.783C105.474 121.703 105.872 109.291 105.872 109.291L100.758 107.214Z" fill="#EBB376"/>
<path d="M88.0871 156.144C88.3721 156.012 88.6788 155.935 88.9915 155.914C88.9915 155.914 90.0738 155.276 91.1469 152.801L92.3534 152.795C92.771 152.8 93.1411 153.064 93.2802 153.458C93.3 153.512 93.3114 153.568 93.3144 153.626C93.3023 153.917 93.2715 154.207 93.2217 154.495C93.113 155.398 92.5164 157.333 92.5164 157.333L92.312 157.281L92.6836 155.481C92.8071 154.869 92.1645 155.46 91.8666 156.077C91.5687 156.694 91.1112 157.314 89.7789 157.01C88.2262 156.646 87.6004 156.423 88.0871 156.144Z" fill="#263238"/>
<path d="M103.965 106.952C103.965 106.952 104.349 123.697 104.941 130.481C105.711 139.33 104.071 152.861 104.071 152.861L105.887 152.942C105.887 152.942 109.694 140.934 108.837 131.034C111.576 120.152 109.399 107.925 109.399 107.925L103.965 106.952Z" fill="#EBB376"/>
<path d="M101.244 156.695C101.513 156.533 101.809 156.423 102.118 156.369C102.118 156.369 103.125 155.618 103.924 153.042L105.123 152.904C105.539 152.864 105.935 153.088 106.116 153.464C106.141 153.515 106.159 153.57 106.168 153.626C106.187 153.918 106.188 154.21 106.17 154.501C106.16 155.41 105.775 157.399 105.775 157.399L105.566 157.369L105.741 155.539C105.798 154.918 105.223 155.575 104.993 156.22C104.764 156.865 104.376 157.532 103.019 157.373C101.437 157.179 100.79 157.025 101.244 156.695Z" fill="#263238"/>
<path d="M91.365 152.153C91.365 152.153 89.8587 155.305 88.9915 155.913C88.9915 155.913 90.1543 156.607 91.365 155.063C92.9306 153.067 93.314 153.625 93.314 153.625C93.314 153.625 93.2475 152.942 93.1256 152.608C92.8903 151.964 91.365 152.153 91.365 152.153Z" fill="#EBB376"/>
<path d="M104.256 152.127C104.256 152.127 103.828 153.294 103.258 154.576C102.688 155.859 102.118 156.368 102.118 156.368C102.118 156.368 103.108 156.69 103.643 156.069C104.177 155.448 105.091 153.206 106.116 153.464C106.116 153.464 106.041 153.196 105.887 152.942C105.734 152.688 104.256 152.127 104.256 152.127Z" fill="#EBB376"/>
<path d="M99.7 104.467C99.7 104.467 98.4771 116.653 96.6607 128.872C95.007 139.996 91.7751 149.391 91.7751 149.391L95.3828 149.692C95.3828 149.692 102.298 132.555 104.402 122.633C104.402 122.633 105.154 140.222 103.951 149.993L107.108 149.842C107.108 149.842 114.812 116.743 109.063 104.82L99.7 104.467Z" fill="#407BFF"/>
<path opacity="0.4" d="M107.108 149.844L103.951 149.992C105.153 140.223 104.404 122.633 104.404 122.633C103.871 125.138 103.033 128.099 102.078 131.132C99.2485 140.112 95.3839 149.693 95.3839 149.693L91.7758 149.391C91.7758 149.391 95.0077 139.997 96.6607 128.871C98.479 116.654 99.7015 104.467 99.7015 104.467L109.064 104.821C114.812 116.742 107.108 149.844 107.108 149.844Z" fill="white"/>
<path opacity="0.2" d="M104.404 122.633C103.871 125.137 103.033 128.099 102.078 131.131C101.713 125.426 103.164 115.191 103.164 115.191L104.404 122.633Z" fill="black"/>
<path d="M109.042 104.228L109.068 105.605L99.6513 105.061L99.6205 103.433L109.042 104.228Z" fill="#263238"/>
<path d="M101.697 105.288L103.757 105.433L103.867 103.871L101.807 103.726L101.697 105.288Z" fill="white"/>
<path d="M105.793 106.089L106.26 106.104L106.336 103.726L105.869 103.711L105.793 106.089Z" fill="#407BFF"/>
<path opacity="0.4" d="M105.793 106.089L106.26 106.104L106.336 103.726L105.869 103.711L105.793 106.089Z" fill="white"/>
<path d="M100.045 105.559L100.511 105.574L100.588 103.196L100.121 103.181L100.045 105.559Z" fill="#407BFF"/>
<path opacity="0.4" d="M100.045 105.559L100.511 105.574L100.588 103.196L100.121 103.181L100.045 105.559Z" fill="white"/>
<path d="M99.6395 103.607L109.042 104.228C109.19 101.891 109.359 101.173 110.063 98.3858C110.288 97.4852 110.57 96.4793 110.932 95.3165C111.126 94.6952 111.34 94.0283 111.58 93.3101C111.759 92.766 111.953 92.1872 112.167 91.5773C110.887 91.17 109.585 90.8534 108.262 90.6342C106.868 90.3864 105.455 90.2382 104.038 90.1896C102.209 90.1751 100.105 90.3807 100.105 90.3807C100.105 90.3807 99.8064 90.4522 99.6183 92.3928C99.4469 94.2134 99.2633 96.9813 99.6395 103.607Z" fill="#263238"/>
<path opacity="0.4" d="M99.6395 103.607L109.042 104.228C109.19 101.891 109.359 101.173 110.063 98.3858C110.288 97.4852 110.57 96.4793 110.932 95.3165C111.126 94.6952 111.34 94.0283 111.58 93.3101C111.759 92.766 111.953 92.1872 112.167 91.5773C110.887 91.17 109.585 90.8534 108.262 90.6342C106.868 90.3864 105.455 90.2382 104.038 90.1896C102.209 90.1751 100.105 90.3807 100.105 90.3807C100.105 90.3807 99.8064 90.4522 99.6183 92.3928C99.4469 94.2134 99.2633 96.9813 99.6395 103.607Z" fill="white"/>
<path d="M104.815 92.2667C107.133 91.9699 107.83 90.9796 107.83 90.9796C106.359 89.5918 107.581 87.1868 107.581 87.1868L104.79 87.7078C104.863 88.1687 104.895 88.556 104.899 88.8824C104.92 90.5761 104.154 90.5928 104.154 90.5928C103.665 91.5105 104.815 92.2667 104.815 92.2667Z" fill="#EBB376"/>
<path opacity="0.2" d="M104.79 87.7078C104.863 88.1688 104.895 88.556 104.899 88.8824C106.784 88.8824 107.581 87.1865 107.581 87.1865L104.79 87.7078Z" fill="black"/>
<path d="M106.333 79.9053C103.907 79.7723 103.055 81.0282 102.741 83.5183C102.347 86.6301 102.919 88.8873 105.988 88.3865C110.157 87.7059 110.361 80.1257 106.333 79.9053Z" fill="#EBB376"/>
<path d="M104.316 83.4686C104.316 83.4686 103.945 84.0838 103.555 84.436C103.555 84.436 103.745 84.7773 104.18 84.7454L104.316 83.4686Z" fill="#D58745"/>
<path d="M105.811 83.3515C105.796 83.5506 105.891 83.7201 106.024 83.7307C106.156 83.741 106.276 83.5882 106.292 83.3891C106.307 83.19 106.212 83.0201 106.08 83.0099C105.948 82.9996 105.827 83.1524 105.811 83.3515Z" fill="#263238"/>
<path d="M106.135 83.0239L105.715 82.8203C105.715 82.8203 105.902 83.2014 106.135 83.0239Z" fill="#263238"/>
<path d="M103.341 83.1163C103.326 83.3154 103.421 83.4849 103.553 83.4955C103.686 83.5058 103.806 83.353 103.821 83.1539C103.837 82.9548 103.742 82.7853 103.609 82.7746C103.477 82.764 103.357 82.9175 103.341 83.1163Z" fill="#263238"/>
<path d="M103.664 82.7887L103.245 82.585C103.245 82.585 103.432 82.9662 103.664 82.7887Z" fill="#263238"/>
<path d="M105.928 81.6776C105.928 81.6776 106.614 81.6263 106.96 82.102" stroke="#2E353A" stroke-width="0.7247" stroke-miterlimit="10" stroke-linecap="round" stroke-linejoin="round"/>
<path d="M104.17 81.4785C104.17 81.4785 103.75 81.2965 103.193 81.6248" stroke="#2E353A" stroke-width="0.7247" stroke-miterlimit="10" stroke-linecap="round" stroke-linejoin="round"/>
<path d="M104.481 85.7189C104.605 86.0191 104.718 86.5769 104.718 86.5769C104.77 86.5758 104.823 86.5747 104.875 86.5709C105.585 86.5382 105.903 86.2885 106.041 86.0214C106.116 85.8751 106.135 85.7219 106.134 85.5977C106.134 85.454 106.102 85.3514 106.102 85.3514C105.736 85.5935 105.077 85.6752 104.723 85.7037C104.575 85.7178 104.481 85.7189 104.481 85.7189Z" fill="#263238"/>
<path d="M104.723 85.7041L104.799 85.9552C105.468 85.9229 105.934 85.8101 106.134 85.598C106.135 85.4544 106.102 85.3518 106.102 85.3518C105.737 85.5939 105.077 85.6752 104.723 85.7041Z" fill="white"/>
<path d="M104.875 86.5708C105.585 86.5382 105.903 86.2885 106.041 86.0214C105.8 86.0419 105.511 86.0932 105.26 86.214C105.068 86.3056 104.951 86.4382 104.875 86.5708Z" fill="#DE5753"/>
<path d="M108.76 84.1388C108.76 84.1388 107.735 82.0838 107.991 80.5547C107.991 80.5547 103.292 78.3275 102.787 83.1938C102.787 83.1938 102.555 78.8356 106.73 78.9674C110.899 79.0989 110.553 85.1986 108.3 86.8984C108.3 86.8984 109.393 85.4236 108.76 84.1388Z" fill="#263238"/>
<path d="M109.007 79.6742C109.007 79.6742 107.109 77.9832 105.38 78.3024C103.651 78.622 103.952 80.8956 106.225 81.7601C108.499 82.6246 108.969 83.733 108.969 83.733L110.942 81.9668L109.007 79.6742Z" fill="#263238"/>
<path d="M104.873 79.0138C104.873 79.0138 104.065 79.07 104.29 80.2727C104.515 81.4754 106.225 82.0796 107.841 82.6436C109.458 83.2075 109.326 83.8432 109.326 83.8432" stroke="#263238" stroke-width="0.5" stroke-miterlimit="10"/>
<path d="M108.336 84.6291C108.373 84.2396 108.813 83.6004 109.535 83.7194C110.282 83.8425 110.556 85.4054 108.666 85.6741C108.394 85.7125 108.257 85.4423 108.336 84.6291Z" fill="#EBB376"/>
<path d="M109.979 91.2365C109.979 91.2365 107.257 93.445 104.723 93.4097C102.189 93.374 101.298 90.524 101.298 90.524C101.298 90.524 105.229 89.3604 109.979 91.2365Z" fill="#EBB376"/>
<path d="M112.167 91.577L110.941 106.251L108.314 106.471C107.926 104.476 107.858 101.324 107.909 98.3542V98.3516C107.977 94.3217 108.262 90.6338 108.262 90.6338C109.722 90.7877 112.167 91.577 112.167 91.577Z" fill="#407BFF"/>
<path opacity="0.4" d="M108.681 94.3156L109.391 95.4043L107.909 98.3512C107.977 94.3213 108.262 90.6334 108.262 90.6334L110.522 92.7367L108.681 94.3156Z" fill="white"/>
<path d="M103.193 90.1664L103.189 90.1691C103.129 90.2774 101.821 92.6543 100.781 97.2086C100.266 99.4715 99.8181 102.276 99.6213 105.605L98.6181 105.14C98.6181 105.14 98.145 93.7745 100.106 90.38L103.193 90.1664Z" fill="#407BFF"/>
<path opacity="0.4" d="M103.189 90.1691C103.129 90.2774 101.821 92.6543 100.781 97.2086L100.314 94.2762L101.297 93.4098L100.314 91.5345L103.189 90.1691Z" fill="white"/>
<path d="M115.972 100.44C115.678 101.07 115.174 101.13 114.655 100.874C114.244 100.671 113.823 100.266 113.492 99.7907C113.255 99.4517 112.939 98.9413 112.614 98.4029C111.919 97.2374 111.195 95.9435 111.195 95.9435L112.167 91.5773C113.566 92.2469 116.496 99.3118 115.972 100.44Z" fill="#407BFF"/>
<path opacity="0.2" d="M114.655 100.874C114.244 100.671 113.823 100.266 113.492 99.7907C113.255 99.4517 112.939 98.9414 112.614 98.4029C113.013 97.6707 113.438 97.0919 113.438 97.0919L114.145 99.0782C114.145 99.0782 115.384 99.3601 115.581 100.007C115.655 100.252 115.234 100.6 114.655 100.874Z" fill="black"/>
<path d="M114.612 95.1957L112.27 104.12C112.216 104.329 111.996 104.476 111.781 104.448L105.569 103.62C105.354 103.591 105.224 103.397 105.279 103.188L107.621 94.2643C107.675 94.0553 107.895 93.9079 108.11 93.9368L114.322 94.7644C114.537 94.7929 114.667 94.9867 114.612 95.1957Z" fill="#263238"/>
<path opacity="0.1" d="M114.612 95.1957L112.27 104.12C112.216 104.329 111.996 104.476 111.781 104.448L105.851 103.658C105.637 103.629 105.506 103.435 105.561 103.226L107.903 94.3019C107.958 94.0929 108.178 93.9455 108.393 93.9744L114.322 94.7644C114.537 94.7929 114.667 94.9867 114.612 95.1957Z" fill="white"/>
<path opacity="0.3" d="M110.3 98.5986C109.992 98.5576 109.678 98.7677 109.599 99.0683C109.52 99.3689 109.706 99.6459 110.015 99.687C110.323 99.728 110.637 99.5178 110.716 99.2173C110.408 99.1762 110.221 98.8992 110.3 98.5986Z" fill="white"/>
<path d="M115.117 102.544C114.697 102.766 113.754 102.43 113.467 102.316C113.41 102.296 113.378 102.282 113.378 102.282C113.378 102.282 112.862 100.6 114.205 99.6911C114.213 99.6854 114.224 99.6771 114.236 99.674C114.663 99.443 115.988 99.7394 116.028 100.187C116.188 101.982 115.615 102.281 115.117 102.544Z" fill="#407BFF"/>
<path opacity="0.2" d="M114.299 101.107C114.137 101.715 113.78 102.09 113.467 102.316C113.41 102.296 113.378 102.282 113.378 102.282C113.378 102.282 112.862 100.6 114.205 99.6911C114.213 99.6854 114.224 99.6771 114.236 99.674C114.353 99.8249 114.535 100.224 114.299 101.107Z" fill="black"/>
<path d="M112.363 98.9748C112.363 98.9748 113.224 98.9372 113.62 98.9748C114.017 99.0124 113.894 100.286 113.894 100.286L114.235 100.47C114.235 100.47 114.51 101.22 113.918 101.597L113.614 101.493C113.614 101.493 113.528 101.793 113.284 101.944C113.04 102.094 111.837 101.756 111.837 101.756L112.363 98.9748Z" fill="#EBB376"/>
<path d="M77.3255 111.479H65.118L67.1427 103.47C67.1868 103.296 67.3714 103.154 67.555 103.154H79.0975C79.281 103.154 79.3943 103.296 79.3502 103.47L77.3255 111.479Z" fill="#263238"/>
<path d="M77.2347 110.811H65.5467L67.3236 103.782H79.012L77.2347 110.811Z" fill="#407BFF"/>
<path opacity="0.6" d="M77.2347 110.811H65.5467L67.3236 103.782H79.012L77.2347 110.811Z" fill="white"/>
<path d="M72.0052 111.223H65.1028H59.7825V111.731C59.7825 111.949 59.9588 112.125 60.1765 112.125H65.1028H72.0052H76.9315C77.1492 112.125 77.3256 111.949 77.3256 111.731V111.223H72.0052Z" fill="#263238"/>
<path opacity="0.6" d="M72.0052 111.223H65.1028H59.7825V111.731C59.7825 111.949 59.9588 112.125 60.1765 112.125H65.1028H72.0052H76.9315C77.1492 112.125 77.3256 111.949 77.3256 111.731V111.223H72.0052Z" fill="white"/>
<path opacity="0.2" d="M66.2824 111.223V111.399H64.1528V111.223H59.7825V111.731C59.7825 111.949 59.9588 112.125 60.1765 112.125H71.6115C71.8292 112.125 72.0056 111.949 72.0056 111.731V111.223H66.2824Z" fill="white"/>
<path opacity="0.6" d="M72.6667 107.93H67.0663L67.8787 104.717H73.4788L72.6667 107.93Z" fill="white"/>
<path d="M73.4313 104.905H67.8312L67.8787 104.717H73.4788L73.4313 104.905Z" fill="#407BFF"/>
<path d="M76.9383 110.309H69.1461L70.2766 105.838H78.0685L76.9383 110.309Z" fill="white"/>
<path d="M78.0023 106.099H70.2104L70.2766 105.838H78.0685L78.0023 106.099Z" fill="#407BFF"/>
<path d="M156.34 158.578H154.567L151.379 114.199H153.733L156.34 158.578Z" fill="#263238"/>
<path opacity="0.1" d="M156.342 158.578H154.567L151.535 116.404L151.378 114.271H153.733L153.86 116.404L156.342 158.578Z" fill="white"/>
<path opacity="0.2" d="M153.86 116.298H151.535L151.378 114.271H153.733L153.86 116.298Z" fill="black"/>
<path d="M106.553 158.578H104.779L107.387 114.199H109.74L106.553 158.578Z" fill="#263238"/>
<path opacity="0.1" d="M109.74 114.271L109.584 116.404L106.552 158.578H104.779L107.258 116.404L107.385 114.271H109.74Z" fill="white"/>
<path opacity="0.2" d="M107.385 114.271H109.74L109.584 116.298H107.258L107.385 114.271Z" fill="black"/>
<path d="M85.0111 158.578H83.2368L80.0494 114.199H82.4031L85.0111 158.578Z" fill="#263238"/>
<path opacity="0.1" d="M85.0118 158.578H83.2368L80.2048 116.404L80.0486 114.271H82.4027L82.5304 116.404L85.0118 158.578Z" fill="white"/>
<path opacity="0.2" d="M82.5304 116.298H80.2048L80.0486 114.271H82.4027L82.5304 116.298Z" fill="black"/>
<path d="M39.0235 158.578H37.2496L39.8576 114.199H42.2109L39.0235 158.578Z" fill="#263238"/>
<path opacity="0.1" d="M42.2105 114.271L42.0543 116.404L39.0223 158.578H37.25L39.7287 116.404L39.8564 114.271H42.2105Z" fill="white"/>
<path opacity="0.2" d="M39.8564 114.271H42.2105L42.0544 116.298H39.7288L39.8564 114.271Z" fill="black"/>
<path d="M154.95 115.311H38.6393C38.2817 115.311 37.9918 115.021 37.9918 114.663V113.088H155.598V114.663C155.598 115.021 155.308 115.311 154.95 115.311Z" fill="#407BFF"/>
<path opacity="0.6" d="M154.95 115.311H38.6393C38.2817 115.311 37.9918 115.021 37.9918 114.663V113.088H155.598V114.663C155.598 115.021 155.308 115.311 154.95 115.311Z" fill="white"/>
<path opacity="0.2" d="M155.598 113.088H37.9918V114.199H155.598V113.088Z" fill="black"/>
<path d="M156.698 113.378H36.892C36.5462 113.378 36.2658 113.097 36.2658 112.752C36.2658 112.406 36.5462 112.125 36.892 112.125H156.698C157.043 112.125 157.324 112.406 157.324 112.752C157.324 113.097 157.043 113.378 156.698 113.378Z" fill="#407BFF"/>
<path opacity="0.6" d="M156.698 113.378H36.892C36.5462 113.378 36.2658 113.097 36.2658 112.752C36.2658 112.406 36.5462 112.125 36.892 112.125H156.698C157.043 112.125 157.324 112.406 157.324 112.752C157.324 113.097 157.043 113.378 156.698 113.378Z" fill="white"/>
<path d="M117.3 111.479H129.508L127.483 103.47C127.438 103.296 127.254 103.154 127.07 103.154H115.528C115.344 103.154 115.231 103.296 115.275 103.47L117.3 111.479Z" fill="#263238"/>
<path d="M117.391 110.811H129.079L127.302 103.782H115.614L117.391 110.811Z" fill="#407BFF"/>
<path opacity="0.6" d="M117.391 110.811H129.079L127.302 103.782H115.614L117.391 110.811Z" fill="white"/>
<path d="M122.62 111.223H129.523H134.843V111.731C134.843 111.949 134.667 112.125 134.449 112.125H129.523H122.62H117.694C117.476 112.125 117.3 111.949 117.3 111.731V111.223H122.62Z" fill="#263238"/>
<path opacity="0.6" d="M122.62 111.223H129.523H134.843V111.731C134.843 111.949 134.667 112.125 134.449 112.125H129.523H122.62H117.694C117.476 112.125 117.3 111.949 117.3 111.731V111.223H122.62Z" fill="white"/>
<path opacity="0.2" d="M128.343 111.223V111.399H130.473V111.223H134.843V111.731C134.843 111.949 134.667 112.125 134.449 112.125H123.015C122.797 112.125 122.621 111.949 122.621 111.731V111.223H128.343Z" fill="white"/>
<path d="M117.903 110.295H128.392L126.87 104.277H116.382L117.903 110.295Z" fill="white"/>
<path d="M116.471 104.628H126.959L126.87 104.277H116.382L116.471 104.628Z" fill="#407BFF"/>
<path d="M144.014 155.419L147.011 155.232C147.115 155.22 147.209 155.296 147.22 155.4C147.22 155.401 147.22 155.402 147.22 155.403L147.514 157.767C147.53 158.025 147.336 158.249 147.077 158.268C146.031 158.316 145.528 158.287 144.209 158.359C143.4 158.407 141.804 158.579 140.687 158.471C139.571 158.363 139.707 157.262 140.19 157.209C141.333 157.079 142.849 156.238 143.564 155.601C143.689 155.492 143.848 155.428 144.014 155.419Z" fill="#263238"/>
<path d="M128.744 155.419L131.741 155.232C131.845 155.22 131.939 155.296 131.95 155.4C131.95 155.401 131.951 155.402 131.951 155.403L132.245 157.767C132.261 158.025 132.066 158.249 131.808 158.268C130.762 158.316 130.259 158.287 128.94 158.359C128.13 158.407 126.535 158.579 125.418 158.471C124.302 158.363 124.438 157.262 124.921 157.209C126.064 157.079 127.579 156.238 128.295 155.601C128.42 155.492 128.578 155.428 128.744 155.419Z" fill="#263238"/>
<path d="M139.999 110.226L137.537 110.595C137.537 110.595 136.701 110.319 135.819 110.226C134.937 110.133 133.916 110.226 133.916 110.226C133.916 110.226 132.801 110.644 132.801 111.712C132.801 111.712 135.401 112.409 136.4 111.991L139.998 111.712L139.999 110.226Z" fill="#EBB376"/>
<path d="M145.839 100.841C144.307 102.425 143.262 108.554 142.984 108.972C142.705 109.39 137.412 110.156 137.412 110.156C137.412 110.156 136.854 111.314 137.412 112.268C137.412 112.268 143.972 111.967 144.766 111.549C145.561 111.131 147.515 106.555 147.515 106.555C147.515 106.555 147.7 105.35 147.257 103.4C146.815 101.45 145.839 100.841 145.839 100.841Z" fill="#407BFF"/>
<path opacity="0.6" d="M145.839 100.841C144.307 102.425 143.262 108.554 142.984 108.972C142.705 109.39 137.412 110.156 137.412 110.156C137.412 110.156 136.854 111.314 137.412 112.268C137.412 112.268 143.972 111.967 144.766 111.549C145.561 111.131 147.515 106.555 147.515 106.555C147.515 106.555 147.7 105.35 147.257 103.4C146.815 101.45 145.839 100.841 145.839 100.841Z" fill="white"/>
<path d="M134.203 92.4012C134.203 92.4012 133.875 93.301 133.454 93.8615C133.454 93.8615 133.789 94.2598 134.35 94.107L134.203 92.4012Z" fill="#D58745"/>
<path d="M133.787 91.9665C133.818 92.2309 133.985 92.4289 134.162 92.4084C134.338 92.3883 134.456 92.1572 134.426 91.8927C134.395 91.6283 134.228 91.4303 134.052 91.4508C133.875 91.4713 133.757 91.702 133.787 91.9665Z" fill="#2E353A"/>
<path d="M133.855 90.9123C133.855 90.9123 134.049 90.8588 134.286 91.0636" stroke="#2E353A" stroke-width="0.7247" stroke-miterlimit="10" stroke-linecap="round" stroke-linejoin="round"/>
<path d="M134.899 95.3797C134.962 95.4959 135.029 95.6088 135.101 95.7144C135.53 96.3547 136.131 96.8195 136.796 97.0836C136.97 97.1539 137.15 97.2105 137.332 97.2531C138.295 97.4765 139.327 97.3028 140.14 96.6743C140.474 96.4216 140.774 96.0872 141.015 95.6734C141.971 94.0519 141.559 92.5635 141.063 89.992C140.965 89.4365 140.74 88.9113 140.401 88.4629C139.218 86.8775 136.973 86.5545 135.391 87.7367C133.161 89.3791 133.773 93.2365 134.899 95.3797Z" fill="#EBB376"/>
<path opacity="0.2" d="M136.796 97.0832C136.97 97.1535 137.15 97.2101 137.332 97.2527C138.295 97.4761 139.327 97.3024 140.14 96.6739C139.838 96.2289 139.47 95.928 139.47 95.928C139.47 95.928 137.896 96.0777 136.796 97.0832Z" fill="black"/>
<path d="M144.169 98.8646C143.207 100.315 138.601 100.886 138.601 100.886C138.601 100.886 136.56 100.846 136.81 100.147C137.887 99.6774 138.299 99.0151 138.355 98.2866C138.386 97.8625 138.295 97.4172 138.144 96.9733C138.068 96.7393 137.971 96.5071 137.869 96.2798L140.943 92.5239C140.14 96.6743 142.607 97.8333 144.169 98.8646Z" fill="#EBB376"/>
<path d="M134.191 87.5889C135.062 86.2213 135.836 86.4614 135.836 86.4614C136.392 85.315 139.655 85.2682 141.311 86.3953C142.968 87.5224 143.547 89.6378 143.437 91.3163C143.277 93.7608 141.744 96.2468 141.744 96.2468C141.744 96.2472 141.743 96.2472 141.742 96.2476C139.814 96.7617 138.198 96.3388 138.074 95.3181C137.95 94.2974 136.919 93.5408 136.919 93.5408C135.97 93.8612 135.111 92.8032 135.111 92.8032C135.111 92.8032 134.034 91.8536 134.323 90.54C134.612 89.2259 133.456 88.7414 134.191 87.5889Z" fill="#263238"/>
<path d="M137.263 92.8667C137.251 93.4565 137.05 93.9383 136.704 94.2062C136.243 94.5558 135.721 93.914 135.603 93.1331C135.503 92.44 135.612 91.4007 136.197 91.3866C136.78 91.3725 137.271 92.1398 137.263 92.8667Z" fill="#EBB376"/>
<path d="M135.578 92.9062C135.578 92.9062 135.84 95.122 136.436 96.0039C137.032 96.8859 136.96 97.1865 137.777 97.326C137.777 97.326 137.317 97.9378 136.903 97.8496C136.49 97.7614 136.583 97.4111 136.216 97.4168C135.85 97.4225 135.217 97.1683 135.284 96.7902C135.35 96.4117 135.423 96.3079 134.939 95.9808C134.456 95.6536 134.285 94.9149 134.547 94.609C134.809 94.3031 135.307 94.3981 135.307 94.3981L135.268 92.7481L135.578 92.9062Z" fill="#263238"/>
<path d="M137.637 100.148C137.637 100.148 138.38 96.81 142.861 96.8423L143.999 98.4953L137.637 100.148Z" fill="#407BFF"/>
<path opacity="0.8" d="M137.637 100.148C137.637 100.148 138.38 96.81 142.861 96.8423L143.999 98.4953L137.637 100.148Z" fill="white"/>
<path d="M138.388 141.475C140.085 147.926 142.761 156.248 142.761 156.248L147.458 155.889C147.458 155.889 144.907 144.66 144.209 137.767C143.777 133.512 143.815 129.991 145.061 129.719C145.845 129.546 147.679 129.552 150.029 129.607V120.848C143.434 122.202 136.871 124.757 136.372 126.806C135.673 129.69 136.893 135.795 138.388 141.475Z" fill="#407BFF"/>
<path opacity="0.2" d="M138.388 141.475C140.143 140.364 142.195 139.058 144.209 137.767C143.777 133.513 143.815 129.991 145.061 129.719C145.845 129.546 147.679 129.553 150.029 129.607V120.848C143.434 122.202 136.871 124.757 136.372 126.806C135.673 129.69 136.893 135.795 138.388 141.475Z" fill="black"/>
<path d="M141.072 118.24L139.954 114.865C139.954 114.865 139.15 108.616 135.073 100.742C135.073 100.742 139.98 97.2595 145.419 97.7786C149.603 98.178 153.539 108.905 154.772 117.395L141.072 118.24Z" fill="#407BFF"/>
<path opacity="0.9" d="M154.773 117.395L141.074 118.241L139.953 114.866C139.953 114.866 139.816 113.798 139.367 111.987C139.056 110.742 138.6 109.143 137.935 107.3C137.236 105.35 136.305 103.12 135.073 100.743C135.073 100.743 139.979 97.261 145.417 97.7794C149.605 98.178 153.541 108.903 154.773 117.395Z" fill="white"/>
<path d="M140.958 119.987L140.544 116.662L153.986 114.449C153.986 114.449 158.382 123.159 156.23 127.428C154.256 131.344 133.247 129.011 130.013 129.718C126.746 130.432 132.212 155.832 132.212 155.832L127.515 156.191C127.515 156.191 119.833 132.966 121.325 126.808C121.976 124.119 133.051 120.562 140.958 119.987Z" fill="#407BFF"/>
<path d="M154.479 115.962L148.251 116.779L148.049 115.861L154.288 114.953L154.479 115.962Z" fill="black"/>
<path d="M147.531 115.865L147.607 116.779L141.85 117.57V116.668L147.531 115.865Z" fill="black"/>
<path d="M141.493 116.718V117.57L140.658 117.682V116.858L141.493 116.718Z" fill="black"/>
<path opacity="0.2" d="M139.367 112.282C139.056 111.097 138.6 109.573 137.935 107.817C138.174 107.323 138.501 106.886 138.919 106.556C138.919 106.556 140.207 110.747 139.367 112.282Z" fill="black"/>
<path d="M128.48 111.169L126.407 110.835C126.407 110.835 125.571 110.56 124.689 110.467C123.806 110.374 122.785 110.467 122.785 110.467C122.785 110.467 121.67 110.885 121.67 111.953C121.67 111.953 124.271 112.649 125.269 112.231L128.33 112.923L128.48 111.169Z" fill="#EBB376"/>
<path d="M135.074 100.841C134.106 101.904 134.671 110.609 134.357 111.205C134.043 111.801 126.79 110.597 126.79 110.597L126.313 112.752C126.313 112.752 134.835 115.257 136.4 115.284C137.965 115.312 138.917 106.091 138.917 106.091C138.917 106.091 138.702 104.807 137.557 103.171C136.411 101.535 135.074 100.841 135.074 100.841Z" fill="#407BFF"/>
<path opacity="0.9" d="M135.074 100.841C134.106 101.904 134.671 110.609 134.357 111.205C134.043 111.801 126.79 110.597 126.79 110.597L126.313 112.752C126.313 112.752 134.835 115.257 136.4 115.284C137.965 115.312 138.917 106.091 138.917 106.091C138.917 106.091 138.702 104.807 137.557 103.171C136.411 101.535 135.074 100.841 135.074 100.841Z" fill="white"/>
<path d="M133.457 131.197H160.083V129.502C160.083 128.077 158.927 126.921 157.501 126.921H136.039C134.613 126.921 133.457 128.077 133.457 129.502V131.197Z" fill="#407BFF"/>
<path opacity="0.4" d="M133.457 131.197H160.083V129.502C160.083 128.077 158.927 126.921 157.501 126.921H136.039C134.613 126.921 133.457 128.077 133.457 129.502V131.197Z" fill="white"/>
<path d="M151.348 116.334H136.688C135.934 116.334 135.377 117.151 135.546 118.007L138.167 131.198H138.773L136.54 119.637C136.375 118.784 136.932 117.973 137.683 117.973H151.049L151.348 116.334Z" fill="#263238"/>
<path d="M145.06 131.659V142.804C145.06 143.163 145.352 143.452 145.708 143.452H148.44C148.799 143.452 149.088 143.163 149.088 142.804V131.659H145.06Z" fill="#263238"/>
<path d="M161.328 158.578C161.982 158.578 162.512 158.048 162.512 157.394C162.512 156.74 161.982 156.21 161.328 156.21C160.674 156.21 160.143 156.74 160.143 157.394C160.143 158.048 160.674 158.578 161.328 158.578Z" fill="#263238"/>
<path opacity="0.2" d="M160.736 157.394C160.736 157.067 161 156.802 161.328 156.802C161.655 156.802 161.92 157.067 161.92 157.394C161.92 157.721 161.654 157.986 161.328 157.986C161.001 157.986 160.736 157.721 160.736 157.394Z" fill="white"/>
<path d="M131.639 157.394C131.639 156.74 132.169 156.21 132.823 156.21C133.477 156.21 134.007 156.74 134.007 157.394C134.007 158.048 133.477 158.578 132.823 158.578C132.169 158.578 131.639 158.048 131.639 157.394Z" fill="#263238"/>
<path opacity="0.2" d="M132.231 157.394C132.231 157.067 132.496 156.802 132.823 156.802C133.15 156.802 133.415 157.067 133.415 157.394C133.415 157.721 133.15 157.986 132.823 157.986C132.495 157.986 132.231 157.721 132.231 157.394Z" fill="white"/>
<path d="M146.095 152.198V139.459H148.055V152.198C155.683 152.394 160.319 155.061 161.247 155.645C161.356 155.714 161.42 155.833 161.42 155.961V157.019C161.42 157.226 161.253 157.394 161.046 157.394C160.911 157.394 160.787 157.322 160.721 157.205L160.268 156.411C160.268 156.411 155.021 154.54 148.055 154.389V156.483C148.055 156.75 147.838 156.967 147.57 156.967H146.58C146.313 156.967 146.096 156.75 146.096 156.483V154.389C139.13 154.54 133.882 156.411 133.882 156.411L133.43 157.205C133.363 157.322 133.239 157.394 133.105 157.394C132.898 157.394 132.73 157.226 132.73 157.019V155.961C132.73 155.833 132.795 155.713 132.903 155.645C133.83 155.061 138.466 152.393 146.095 152.198Z" fill="#263238"/>
<path d="M146.432 158.578H147.718V156.209H146.432V158.578Z" fill="#263238"/>
<path opacity="0.2" d="M149.088 131.659H145.06V136.289H149.088V131.659Z" fill="black"/>
<path d="M132.729 130.511V131.842C132.729 132.218 132.992 132.522 133.315 132.522H160.225C160.549 132.522 160.808 132.219 160.808 131.842V130.511C160.808 130.138 160.549 129.831 160.225 129.831H133.315C132.992 129.831 132.729 130.138 132.729 130.511Z" fill="#263238"/>
<path d="M145.109 131.198H160.809C160.809 131.198 165.797 123.005 165.797 109.469V104.498C165.797 102.456 164.119 100.798 162.048 100.798H155.391C153.363 100.798 151.703 102.39 151.646 104.393C151.452 111.367 150.412 126.471 145.109 131.198Z" fill="#263238"/>
<path opacity="0.2" d="M148.563 131.198H160.099C160.545 131.198 160.954 130.955 161.16 130.564C162.295 128.401 165.797 120.811 165.797 109.469V104.498C165.797 102.455 164.12 100.798 162.051 100.798H156.298C154.27 100.798 152.61 102.39 152.552 104.393C152.379 110.624 151.531 123.344 147.57 129.355C147.048 130.149 147.604 131.198 148.563 131.198Z" fill="white"/>
<path opacity="0.2" d="M132.729 130.511V131.842C132.729 132.217 132.99 132.522 133.313 132.522H145.373C145.808 132.522 146.161 132.11 146.161 131.603V130.75C146.161 130.243 145.808 129.832 145.373 129.832H133.316C132.992 129.831 132.729 130.138 132.729 130.511Z" fill="black"/>
<path d="M61.0418 102.079L59.8904 102.353L59.6244 101.426C59.6244 101.426 59.2824 101.654 58.8112 101.426C58.682 101.365 58.5034 101.255 58.3058 101.126C57.7928 100.787 57.1848 100.324 57.1848 100.324L58.074 98.5112C58.074 98.5112 58.4616 98.667 58.9366 98.876C59.6054 99.1762 60.4452 99.5752 60.5934 99.788C60.8442 100.149 60.7188 100.822 60.7188 100.822L61.0418 102.079Z" fill="#E4897B"/>
<path opacity="0.2" d="M58.3058 101.126C57.7928 100.787 57.1848 100.324 57.1848 100.324L58.074 98.5112C58.074 98.5112 58.4616 98.667 58.9366 98.876C58.9784 99.408 58.9328 100.339 58.3058 101.126Z" fill="black"/>
<path d="M76.946 143.939L75.0399 144.685L73.6681 142.101L72.4221 139.75L74.5356 138.483L75.8117 141.369L76.946 143.939Z" fill="#E4897B"/>
<path opacity="0.2" d="M75.8117 141.369L73.6681 142.101L72.4221 139.75L74.5356 138.483L75.8117 141.369Z" fill="black"/>
<path d="M75.4165 139.959L72.8222 141.351C72.8222 141.351 63.0216 124.118 61.5142 124.262C60.0067 124.404 45.7092 133.518 41.3491 130.152C36.9893 126.79 41.2317 116.656 41.2317 116.656C41.2317 116.656 50.2513 114.078 51.2295 116.06C51.4198 116.443 51.6748 117.212 51.8755 117.871C52.0677 118.492 52.2129 119.016 52.2129 119.016C52.2129 119.016 52.2159 119.016 52.2186 119.013C52.4933 118.902 61.4021 115.249 65.3791 117.206C69.4193 119.198 75.4165 139.959 75.4165 139.959Z" fill="#263238"/>
<path opacity="0.3" d="M75.4165 139.959L72.8222 141.351C72.8222 141.351 63.0216 124.118 61.5142 124.262C60.0067 124.404 45.7092 133.518 41.3491 130.152C36.9893 126.79 41.2317 116.656 41.2317 116.656C41.2317 116.656 50.2513 114.078 51.2295 116.06C51.4198 116.443 51.6748 117.212 51.8755 117.871C52.0677 118.492 52.2129 119.016 52.2129 119.016C52.2129 119.016 52.2159 119.016 52.2186 119.013C52.4933 118.902 61.4021 115.249 65.3791 117.206C69.4193 119.198 75.4165 139.959 75.4165 139.959Z" fill="white"/>
<path d="M61.3257 154.012L59.2923 153.779L59.2828 150.909L59.2783 148.276L61.7372 148.16L61.5206 151.259L61.3257 154.012Z" fill="#E4897B"/>
<path opacity="0.2" d="M61.5134 151.321L59.2763 150.965L59.2752 148.305L61.7357 148.175L61.5134 151.321Z" fill="black"/>
<path d="M71.5538 140.496L75.35 138.594L75.7444 140.203L72.8709 141.685L71.5538 140.496Z" fill="#407BFF"/>
<path d="M48.0846 130.18C48.0846 130.18 48.7097 130.109 58.2979 128.332C58.2979 128.332 58.5141 140.595 58.9689 149.735L61.9223 149.831C61.9223 149.831 66.1585 129.543 65.6611 126.481C65.1637 123.418 61.5176 123.003 61.5176 123.003C61.5176 123.003 55.1891 127.92 48.0846 130.18Z" fill="#263238"/>
<path opacity="0.4" d="M48.0846 130.18C48.0846 130.18 48.7097 130.109 58.2979 128.332C58.2979 128.332 58.5141 140.595 58.9689 149.735L61.9223 149.831C61.9223 149.831 66.1585 129.543 65.6611 126.481C65.1637 123.418 61.5176 123.003 61.5176 123.003C61.5176 123.003 55.1891 127.92 48.0846 130.18Z" fill="white"/>
<path opacity="0.3" d="M48.0846 130.18C48.0846 130.18 48.7097 130.109 58.2979 128.332C58.2979 128.332 58.5141 140.595 58.9689 149.735L61.9223 149.831C61.9223 149.831 66.1585 129.543 65.6611 126.481C65.1637 123.418 61.5176 123.003 61.5176 123.003C61.5176 123.003 55.1891 127.92 48.0846 130.18Z" fill="black"/>
<path d="M58.4271 148.918L62.4551 148.824L61.9037 150.484L58.6364 150.513L58.4271 148.918Z" fill="#407BFF"/>
<path d="M80.7365 147.319C80.4176 147.223 80.084 147.185 79.7519 147.208C79.7519 147.208 78.5211 146.694 77.0349 144.246L75.7649 144.413C75.3264 144.479 74.9753 144.811 74.886 145.245C74.8731 145.305 74.8689 145.366 74.8742 145.426C74.9293 145.731 75.0038 146.032 75.0973 146.327C75.342 147.261 76.2494 149.21 76.2494 149.21L76.4569 149.126L75.8056 147.286C75.5871 146.661 76.3486 147.19 76.7514 147.795C77.1542 148.401 77.725 148.988 79.0823 148.475C80.6627 147.868 81.2886 147.543 80.7365 147.319Z" fill="#263238"/>
<path d="M76.7111 143.596C76.7111 143.596 78.7513 146.694 79.7515 147.209C79.7515 147.209 78.6286 148.106 77.1318 146.658C75.196 144.785 74.8738 145.426 74.8738 145.426C74.8738 145.426 74.8449 144.698 74.9251 144.329C75.0798 143.618 76.7111 143.596 76.7111 143.596Z" fill="#E4897B"/>
<path d="M64.3687 157.618C64.0822 157.449 63.7668 157.333 63.4385 157.277C63.4385 157.277 62.3646 156.486 61.5012 153.755L60.2279 153.617C59.7863 153.576 59.3664 153.816 59.1768 154.217C59.1502 154.271 59.1316 154.329 59.1224 154.389C59.1034 154.698 59.1046 155.008 59.1255 155.317C59.1418 156.282 59.5609 158.392 59.5609 158.392L59.7825 158.359L59.586 156.418C59.5222 155.758 60.1366 156.452 60.384 157.136C60.6314 157.82 61.0468 158.525 62.4873 158.349C64.1673 158.134 64.8525 157.966 64.3687 157.618Z" fill="#263238"/>
<path d="M61.3416 153.047C61.3416 153.047 62.5891 156.54 63.4388 157.277C63.4388 157.277 62.135 157.883 61.0247 156.121C59.5887 153.843 59.1232 154.39 59.1232 154.39C59.1232 154.39 59.2676 153.676 59.4332 153.336C59.7513 152.681 61.3416 153.047 61.3416 153.047Z" fill="#E4897B"/>
<path d="M59.0088 94.7218C59.0088 94.7218 58.3065 94.7036 57.9778 95.2056" stroke="#263238" stroke-width="0.5" stroke-miterlimit="10" stroke-linecap="round" stroke-linejoin="round"/>
<path d="M58.7018 96.3934C58.7018 96.3934 59.1103 97.0022 59.5256 97.3415C59.5256 97.3415 59.3493 97.6987 58.9047 97.6881L58.7018 96.3934Z" fill="#DE5753"/>
<path d="M59.0589 95.6718C59.0848 95.874 58.9962 96.0518 58.8617 96.0689C58.7272 96.086 58.5969 95.9363 58.571 95.7341C58.5452 95.532 58.6333 95.3541 58.7682 95.337C58.9028 95.3199 59.0331 95.4696 59.0589 95.6718Z" fill="#263238"/>
<path d="M58.7131 95.3537L59.1308 95.1254C59.1308 95.1254 58.959 95.5232 58.7131 95.3537Z" fill="#263238"/>
<path d="M53.8096 100.515C53.8355 100.536 53.8643 100.556 53.8932 100.57C54.2812 100.819 54.7247 101.053 55.2198 101.141C56.6053 101.39 57.5325 101.157 58.1127 100.507C58.1158 100.507 58.1158 100.507 58.1158 100.507C58.9259 99.5356 59.0593 97.8777 58.8416 95.8964C58.7443 94.9878 58.5756 94.2012 58.2944 93.5966C58.291 93.5905 58.2898 93.5677 58.2864 93.5617C58.2727 93.5373 58.2617 93.5031 58.248 93.4792C57.8308 92.6356 57.1806 92.1078 56.174 91.9208C55.8259 91.857 55.4334 91.8311 54.9929 91.8463C51.1162 91.9949 50.732 98.4469 53.8096 100.515Z" fill="#E4897B"/>
<path opacity="0.2" d="M53.8932 100.57C54.2812 100.819 54.722 100.999 55.2172 101.087C56.6026 101.336 57.5276 101.058 58.1074 100.399C57.4421 100.58 56.5396 100.68 55.6393 100.317C55.0724 100.09 54.4617 100.25 53.8932 100.57Z" fill="black"/>
<path d="M58.2944 93.5708C58.2944 93.5708 58.6406 96.2779 56.1227 97.5703C56.1227 97.5703 55.1549 100.447 53.5292 100.566C51.3127 100.729 49.2025 97.6664 49.8143 94.4129C50.6074 90.1937 56.9093 89.5462 58.2944 93.5708Z" fill="#263238"/>
<path d="M57.3889 96.7263C57.3672 96.3026 56.9918 95.6072 56.3378 95.7361C55.6606 95.8694 55.365 97.5688 57.059 97.8625C57.3018 97.9051 57.4337 97.6106 57.3889 96.7263Z" fill="#E4897B"/>
<path d="M53.4217 90.9139C53.4217 90.9139 55.9817 90.1318 57.4656 91.1043C59.1984 92.2397 59.8946 93.4679 58.0086 95.5195C58.0086 95.5195 53.5873 94.321 52.1551 94.6903C50.7229 95.0597 49.7087 95.532 49.7087 95.532C49.2637 92.6721 51.9454 90.3971 53.4217 90.9139Z" fill="#263238"/>
<path d="M55.8567 100.877C55.8567 100.877 53.9533 101.807 54.5089 103.847L49.6624 101.829C49.6624 101.829 52.3094 101.663 52.1757 99.8017C52.1757 99.8017 54.9447 98.7377 55.8567 100.877Z" fill="#E4897B"/>
<path d="M54.0832 91.4382C54.0832 91.4382 52.6381 87.2738 49.3568 87.9924C46.0755 88.711 46.3293 92.2321 48.6754 93.3211C51.0216 94.4098 54.3089 93.996 54.0832 91.4382Z" fill="#263238"/>
<path d="M49.5806 93.2531C49.5806 93.2531 46.6862 93.236 47.0434 95.7182C47.0434 95.7182 47.2926 94.9141 47.9443 94.5839C47.9443 94.5839 47.0681 95.2546 47.9405 96.4163C47.9405 96.4163 47.5894 95.6597 48.7864 95.1311C49.9834 94.6025 53.2598 94.6523 52.6495 93.0331C52.0392 91.4143 49.5806 93.2531 49.5806 93.2531Z" fill="#263238"/>
<path d="M53.5721 91.4322C53.5721 91.4322 52.8744 86.3626 48.7841 87.3859" stroke="#263238" stroke-width="0.5" stroke-miterlimit="10" stroke-linecap="round" stroke-linejoin="round"/>
<path d="M51.945 98.895C51.945 98.895 48.9631 97.3879 49.4917 94.9988" stroke="#263238" stroke-width="0.5" stroke-miterlimit="10" stroke-linecap="round" stroke-linejoin="round"/>
<path d="M49.2838 93.271C49.2838 93.271 46.6698 93.2304 46.4437 95.0107" stroke="#263238" stroke-width="0.5" stroke-miterlimit="10" stroke-linecap="round" stroke-linejoin="round"/>
<path d="M49.9948 101.692L51.1781 100.841C51.1781 100.841 55.0674 101.368 55.1073 103.847C55.1476 106.327 49.9948 101.692 49.9948 101.692Z" fill="#407BFF"/>
<path d="M49.2839 101.692C49.2839 101.692 52.2007 101.131 56.2603 103.847C56.2603 103.847 57.6188 109.792 51.8758 117.871L40.985 117.189C40.985 117.189 43.9335 105.285 49.2839 101.692Z" fill="#263238"/>
<path opacity="0.3" d="M52.2129 119.016L48.506 120.877C48.506 120.877 49.7338 118.825 51.8751 117.871C52.0677 118.492 52.2129 119.016 52.2129 119.016Z" fill="black"/>
<path opacity="0.1" d="M55.9308 109.326C55.7484 110.09 55.4976 110.922 55.1632 111.807C54.483 113.62 53.4456 115.664 51.8762 117.872L40.9854 117.188C40.9854 117.188 43.9342 105.287 49.2846 101.692C49.2846 101.692 52.1992 101.133 56.2614 103.846C56.2614 103.846 56.7402 105.94 55.9308 109.326Z" fill="white"/>
<path opacity="0.2" d="M55.9308 109.326C55.7484 110.09 55.4976 110.922 55.1632 111.807C55.0454 110.512 55.186 109.117 55.186 109.117C55.4672 109.147 55.7142 109.22 55.9308 109.326Z" fill="black"/>
<path d="M56.2599 103.847C56.2599 103.847 59.4629 108.452 60.2898 108.894C61.1167 109.335 59.5252 101.692 59.5252 101.692L61.0707 101.356C61.0707 101.356 63.8105 110.546 61.9728 112.124C60.1351 113.702 55.1845 109.118 55.1845 109.118C55.1845 109.118 55.0108 107.314 55.1845 105.961C55.3585 104.609 56.2599 103.847 56.2599 103.847Z" fill="#263238"/>
<path opacity="0.1" d="M56.2599 103.847C56.2599 103.847 59.4629 108.452 60.2898 108.894C61.1167 109.335 59.5252 101.692 59.5252 101.692L61.0707 101.356C61.0707 101.356 63.8105 110.546 61.9728 112.124C60.1351 113.702 55.1845 109.118 55.1845 109.118C55.1845 109.118 55.0108 107.314 55.1845 105.961C55.3585 104.609 56.2599 103.847 56.2599 103.847Z" fill="white"/>
<path d="M58.9727 131.197H32.3473V129.502C32.3473 128.077 33.5032 126.921 34.929 126.921H56.3914C57.8172 126.921 58.9731 128.077 58.9731 129.502V131.197H58.9727Z" fill="#407BFF"/>
<path opacity="0.4" d="M58.9727 131.197H32.3473V129.502C32.3473 128.077 33.5032 126.921 34.929 126.921H56.3914C57.8172 126.921 58.9731 128.077 58.9731 129.502V131.197H58.9727Z" fill="white"/>
<path d="M41.082 116.334H55.7412C56.4951 116.334 57.053 117.151 56.8831 118.007L54.2623 131.198H53.6569L55.8898 119.637C56.0547 118.784 55.4973 117.973 54.7464 117.973H41.381L41.082 116.334Z" fill="#263238"/>
<path d="M47.3698 131.659V142.804C47.3698 143.163 47.0776 143.452 46.7219 143.452H43.9893C43.6302 143.452 43.3414 143.163 43.3414 142.804V131.659H47.3698Z" fill="#263238"/>
<path d="M32.2865 157.394C32.2865 156.74 31.7564 156.21 31.1024 156.21C30.4484 156.21 29.9183 156.74 29.9183 157.394C29.9183 158.048 30.4484 158.578 31.1024 158.578C31.7564 158.578 32.2865 158.048 32.2865 157.394Z" fill="#263238"/>
<path opacity="0.2" d="M31.6945 157.394C31.6945 157.067 31.4292 156.802 31.1024 156.802C30.7756 156.802 30.5104 157.067 30.5104 157.394C30.5104 157.72 30.7756 157.986 31.1024 157.986C31.4292 157.986 31.6945 157.72 31.6945 157.394Z" fill="white"/>
<path d="M60.7914 157.394C60.7914 156.74 60.2613 156.21 59.6074 156.21C58.9534 156.21 58.4233 156.74 58.4233 157.394C58.4233 158.048 58.9534 158.578 59.6074 158.578C60.261 158.578 60.7914 158.048 60.7914 157.394Z" fill="#263238"/>
<path opacity="0.2" d="M59.6074 157.986C59.9343 157.986 60.1994 157.721 60.1994 157.394C60.1994 157.067 59.9343 156.802 59.6074 156.802C59.2804 156.802 59.0153 157.067 59.0153 157.394C59.0153 157.721 59.2804 157.986 59.6074 157.986Z" fill="white"/>
<path d="M46.3343 152.198V139.459H44.375V152.198C36.7461 152.394 32.1101 155.061 31.1825 155.645C31.0742 155.714 31.0096 155.833 31.0096 155.961V157.019C31.0096 157.226 31.1772 157.394 31.3843 157.394C31.5188 157.394 31.6431 157.322 31.7096 157.205L32.1622 156.411C32.1622 156.411 37.41 154.54 44.3754 154.389V156.482C44.3754 156.75 44.5924 156.967 44.8599 156.967H45.8502C46.1177 156.967 46.3347 156.75 46.3347 156.482V154.389C53.3001 154.54 58.5479 156.411 58.5479 156.411L59.0004 157.205C59.0669 157.322 59.1912 157.394 59.3257 157.394C59.5324 157.394 59.7004 157.226 59.7004 157.019V155.961C59.7004 155.833 59.6358 155.713 59.5275 155.645C58.5992 155.061 53.9635 152.393 46.3343 152.198Z" fill="#263238"/>
<path d="M45.9976 156.21H44.7121V158.578H45.9976V156.21Z" fill="#263238"/>
<path opacity="0.2" d="M47.3698 131.659H43.3414V136.289H47.3698V131.659Z" fill="black"/>
<path d="M59.7008 130.511V131.842C59.7008 132.218 59.4379 132.522 59.1145 132.522H32.2044C31.881 132.522 31.6211 132.219 31.6211 131.842V130.511C31.6211 130.137 31.881 129.831 32.2044 129.831H59.1141C59.4379 129.831 59.7008 130.137 59.7008 130.511Z" fill="#263238"/>
<path d="M47.3204 131.198H31.6211C31.6211 131.198 26.6328 123.005 26.6328 109.468V104.498C26.6328 102.456 28.3109 100.798 30.3815 100.798H37.0387C39.0672 100.798 40.727 102.39 40.7848 104.393C40.9778 111.367 42.0179 126.471 47.3204 131.198Z" fill="#263238"/>
<path opacity="0.2" d="M43.867 131.198H32.3305C31.8844 131.198 31.4755 130.955 31.27 130.564C30.1345 128.401 26.6324 120.811 26.6324 109.468V104.498C26.6324 102.455 28.3094 100.798 30.3781 100.798H36.1313C38.1597 100.798 39.8196 102.39 39.877 104.393C40.0499 110.624 40.8984 123.344 44.8588 129.355C45.382 130.148 44.8257 131.198 43.867 131.198Z" fill="white"/>
<path opacity="0.2" d="M59.7008 130.511V131.842C59.7008 132.217 59.4394 132.522 59.1171 132.522H47.0574C46.6216 132.522 46.2686 132.11 46.2686 131.603V130.75C46.2686 130.243 46.6216 129.832 47.0574 129.832H59.1141C59.4378 129.831 59.7008 130.137 59.7008 130.511Z" fill="black"/>
</g>
<defs>
<filter id="filter0_d_2_2871" x="0" y="0" width="198" height="198" filterUnits="userSpaceOnUse" color-interpolation-filters="sRGB">
<feFlood flood-opacity="0" result="BackgroundImageFix"/>
<feColorMatrix in="SourceAlpha" type="matrix" values="0 0 0 0 0 0 0 0 0 0 0 0 0 0 0 0 0 0 127 0" result="hardAlpha"/>
<feOffset dy="4"/>
<feGaussianBlur stdDeviation="2"/>
<feComposite in2="hardAlpha" operator="out"/>
<feColorMatrix type="matrix" values="0 0 0 0 0 0 0 0 0 0 0 0 0 0 0 0 0 0 0.25 0"/>
<feBlend mode="normal" in2="BackgroundImageFix" result="effect1_dropShadow_2_2871"/>
<feBlend mode="normal" in="SourceGraphic" in2="effect1_dropShadow_2_2871" result="shape"/>
</filter>
</defs>
</svg>
